# File generated by ImageToStl.com - Free Image and 3D model conversion tools

o obj1
v 1 -0.29299939 -0.40975177
v 1 0.16551614 -0.40975177
v 1 0.16551614 0.40975177
v 1 -0.29299939 0.40975177
v 0.90606058 0.16551614 -0.40975177
v 0 0.16551614 -0.40975177
v 0 0.16551614 0.40975177
v 0.90606058 0.16551614 0.40975177
v 0.90606058 -0.29299939 0.40975177
v 0.90606058 0.16551614 0.40975177
v 0 0.16551614 0.40975177
v 0 -0.29299939 0.40975177
v 0.90606058 0.37146229 0.40975177
v 0.90606058 0.37146229 -0.40975177
v 1 0.37146229 -0.40975177
v 1 0.37146229 0.40975177
v 0.90606058 0.37146229 0.40975177
v -1 -0.29299939 -0.40975177
v -1 -0.29299939 0.40975177
v -1 0.16551614 0.40975177
v -1 0.16551614 -0.40975177
v -0.90606058 0.16551614 -0.40975177
v -0.90606058 0.16551614 0.40975177
v -0.90606058 -0.29299939 0.40975177
v -0.90606058 0.16551614 0.40975177
v -0.90606058 0.37146229 -0.40975177
v -0.90606058 0.37146229 0.40975177
v -1 0.37146229 -0.40975177
v -1 0.37146229 0.40975177
v -0.90606058 0.37146229 0.40975177
v 1 -0.29845685 -1.22925532
v 1 0.15823096 -1.22925532
v 1 0.16551614 -0.40975177
v 1 -0.29299939 -0.40975177
v 0.90606058 0.15453152 -1.22925532
v 0 0.15453152 -1.22925532
v 0 0.16551614 -0.40975177
v 0.90606058 0.16551614 -0.40975177
v 0.90606058 0.37146229 -0.40975177
v 0.90606058 0.36175582 -1.22925532
v 1 0.36245942 -1.22925532
v 1 0.37146229 -0.40975177
v -1 -0.29845685 -1.22925532
v -1 -0.29299939 -0.40975177
v -1 0.16551614 -0.40975177
v -1 0.15823096 -1.22925532
v -0.90606058 0.15453152 -1.22925532
v -0.90606058 0.16551614 -0.40975177
v -0.90606058 0.36175582 -1.22925532
v -0.90606058 0.37146229 -0.40975177
v -1 0.36245942 -1.22925532
v -1 0.37146229 -0.40975177
v 1 -0.41724938 -2.04875898
v 1 0.03527804 -2.04875898
v 1 0.15823096 -1.22925532
v 1 -0.29845685 -1.22925532
v 0.90606058 0.02031927 -2.04875898
v 0 0.02031927 -2.04875898
v 0 0.15453152 -1.22925532
v 0.90606058 0.15453152 -1.22925532
v 0.90606058 0.36175582 -1.22925532
v 0.90606058 0.23122559 -2.04875898
v 1 0.23405623 -2.04875898
v 1 0.36245942 -1.22925532
v -1 -0.41724938 -2.04875898
v -1 -0.29845685 -1.22925532
v -1 0.15823096 -1.22925532
v -1 0.03527804 -2.04875898
v -0.90606058 0.02031927 -2.04875898
v -0.90606058 0.15453152 -1.22925532
v -0.90606058 0.23122559 -2.04875898
v -0.90606058 0.36175582 -1.22925532
v -1 0.23405623 -2.04875898
v -1 0.36245942 -1.22925532
v 1 -0.65938461 -2.86826229
v 1 -0.20660704 -2.86826229
v 1 0.03527804 -2.04875898
v 1 -0.41724938 -2.04875898
v 0.90606058 -0.23226848 -2.86826229
v 0 -0.23226848 -2.86826229
v 0 0.02031927 -2.04875898
v 0.90606058 0.02031927 -2.04875898
v 0.90606058 0.23122559 -2.04875898
v 0.90606058 -0.01768565 -2.86826229
v 1 -0.01273289 -2.86826229
v 1 0.23405623 -2.04875898
v -1 -0.65938461 -2.86826229
v -1 -0.41724938 -2.04875898
v -1 0.03527804 -2.04875898
v -1 -0.20660704 -2.86826229
v -0.90606058 -0.23226848 -2.86826229
v -0.90606058 0.02031927 -2.04875898
v -0.90606058 -0.01768565 -2.86826229
v -0.90606058 0.23122559 -2.04875898
v -1 -0.01273289 -2.86826229
v -1 0.23405623 -2.04875898
v 1 -0.98215294 -3.68776608
v 1 -0.52581209 -3.68776608
v 1 -0.20660704 -2.86826229
v 1 -0.65938461 -2.86826229
v 0.90606058 -0.55985159 -3.68776608
v 0 -0.55985159 -3.68776608
v 0 -0.23226848 -2.86826229
v 0.90606058 -0.23226848 -2.86826229
v 0.90606058 -0.01768565 -2.86826229
v 0.90606058 -0.34160155 -3.68776608
v 1 -0.33453453 -3.68776608
v 1 -0.01273289 -2.86826229
v -1 -0.98215294 -3.68776608
v -1 -0.65938461 -2.86826229
v -1 -0.20660704 -2.86826229
v -1 -0.52581209 -3.68776608
v -0.90606058 -0.55985159 -3.68776608
v -0.90606058 -0.23226848 -2.86826229
v -0.90606058 -0.34160155 -3.68776608
v -0.90606058 -0.01768565 -2.86826229
v -1 -0.33453453 -3.68776608
v -1 -0.01273289 -2.86826229
v 1 -1.34219897 -4.50726986
v 1 -0.88368344 -4.50726986
v 1 -0.52581209 -3.68776608
v 1 -0.98215294 -3.68776608
v 0.90606058 -0.91905069 -4.50726986
v 0 -0.91905069 -4.50726986
v 0 -0.55985159 -3.68776608
v 0.90606058 -0.55985159 -3.68776608
v 0.90606058 -0.34160155 -3.68776608
v 0.90606058 -0.69714898 -4.50726986
v 1 -0.68798202 -4.50726986
v 1 -0.33453453 -3.68776608
v -1 -1.34219897 -4.50726986
v -1 -0.98215294 -3.68776608
v -1 -0.52581209 -3.68776608
v -1 -0.88368344 -4.50726986
v -0.90606058 -0.91905069 -4.50726986
v -0.90606058 -0.55985159 -3.68776608
v -0.90606058 -0.69714898 -4.50726986
v -0.90606058 -0.34160155 -3.68776608
v -1 -0.68798202 -4.50726986
v -1 -0.33453453 -3.68776608
v 1 -1.69597459 -5.32677364
v 1 -1.23745906 -5.32677364
v 1 -0.88368344 -4.50726986
v 1 -1.34219897 -4.50726986
v 0.90606058 -1.26648974 -5.32677364
v 0 -1.26648974 -5.32677364
v 0 -0.91905069 -4.50726986
v 0.90606058 -0.91905069 -4.50726986
v 0.90606058 -0.69714898 -4.50726986
v 0.90606058 -1.0409677 -5.32677364
v 1 -1.03028226 -5.32677364
v 1 -0.68798202 -4.50726986
v -1 -1.69597459 -5.32677364
v -1 -1.34219897 -4.50726986
v -1 -0.88368344 -4.50726986
v -1 -1.23745906 -5.32677364
v -0.90606058 -1.26648974 -5.32677364
v -0.90606058 -0.91905069 -4.50726986
v -0.90606058 -1.0409677 -5.32677364
v -0.90606058 -0.69714898 -4.50726986
v -1 -1.03028226 -5.32677364
v -1 -0.68798202 -4.50726986
v 1 -2.00010014 -6.14627743
v 1 -1.54158449 -6.14627743
v 1 -1.23745906 -5.32677364
v 1 -1.69597459 -5.32677364
v 0.90606058 -1.55880177 -6.14627743
v 0 -1.55880177 -6.14627743
v 0 -1.26648974 -5.32677364
v 0.90606058 -1.26648974 -5.32677364
v 0.90606058 -1.0409677 -5.32677364
v 0.90606058 -1.33131981 -6.14627743
v 1 -1.33131981 -6.14627743
v 1 -1.03028226 -5.32677364
v -1 -2.00010014 -6.14627743
v -1 -1.69597459 -5.32677364
v -1 -1.23745906 -5.32677364
v -1 -1.54158449 -6.14627743
v -0.90606058 -1.55880177 -6.14627743
v -0.90606058 -1.26648974 -5.32677364
v -0.90606058 -1.33131981 -6.14627743
v -0.90606058 -1.0409677 -5.32677364
v -1 -1.33131981 -6.14627743
v -1 -1.03028226 -5.32677364
v 1 -2.21119785 -6.96578121
v 1 -1.75268245 -6.96578121
v 1 -1.54158449 -6.14627743
v 1 -2.00010014 -6.14627743
v 0.90606058 -1.75268245 -6.96578121
v 0 -1.75268245 -6.96578121
v 0 -1.55880177 -6.14627743
v 0.90606058 -1.55880177 -6.14627743
v 0.90606058 -1.33131981 -6.14627743
v 0.90606058 -1.54673624 -6.96578121
v 1 -1.54673624 -6.96578121
v 1 -1.33131981 -6.14627743
v -1 -2.21119785 -6.96578121
v -1 -2.00010014 -6.14627743
v -1 -1.54158449 -6.14627743
v -1 -1.75268245 -6.96578121
v -0.90606058 -1.75268245 -6.96578121
v -0.90606058 -1.55880177 -6.14627743
v -0.90606058 -1.54673624 -6.96578121
v -0.90606058 -1.33131981 -6.14627743
v -1 -1.54673624 -6.96578121
v -1 -1.33131981 -6.14627743
v 0.90606058 -2.29299927 -7.785285
v 0.90606058 -1.83448386 -7.785285
v 1 -1.83448386 -7.785285
v 1 -2.29299927 -7.785285
v 1 -1.75268245 -6.96578121
v 1 -2.21119785 -6.96578121
v 0.90606058 -1.83448386 -7.785285
v 0 -1.83448386 -7.785285
v 0 -1.75268245 -6.96578121
v 0.90606058 -1.75268245 -6.96578121
v 0.90606058 -1.54673624 -6.96578121
v 0.90606058 -1.62853765 -7.785285
v 0 -2.29299927 -7.785285
v 0 -1.83448386 -7.785285
v 1 -1.62853765 -7.785285
v 1 -1.54673624 -6.96578121
v 0.90606058 -1.62853765 -7.785285
v -0.90606058 -2.29299927 -7.785285
v -1 -2.29299927 -7.785285
v -1 -1.83448386 -7.785285
v -0.90606058 -1.83448386 -7.785285
v -1 -2.21119785 -6.96578121
v -1 -1.75268245 -6.96578121
v -0.90606058 -1.83448386 -7.785285
v -0.90606058 -1.75268245 -6.96578121
v -0.90606058 -1.62853765 -7.785285
v -0.90606058 -1.54673624 -6.96578121
v -1 -1.62853765 -7.785285
v -1 -1.54673624 -6.96578121
v -0.90606058 -1.62853765 -7.785285
vn 1 0 0
vn 0 1 0
vn 0 0 1
vn -1 0 0
vn 0 0.99991 -0.0134
vn -0.0037 0.99993 -0.0114
vn 0.0037 0.99993 -0.0114
vn 0 0.98686 -0.16159
vn -0.0186 0.98758 -0.156
vn 0.0186 0.98758 -0.156
vn 0 0.95565 -0.29451
vn -0.0396 0.95642 -0.28931
vn 0.0396 0.95642 -0.28931
vn 0 0.92856 -0.37118
vn -0.0594 0.92876 -0.36589
vn 0.0594 0.92876 -0.36589
vn 0 0.9159 -0.4014
vn -0.0791 0.91492 -0.39581
vn 0.0791 0.91492 -0.39581
vn 0 0.92069 -0.3903
vn -0.097 0.9181 -0.3843
vn 0.097 0.9181 -0.3843
vn 0 0.94187 -0.33599
vn -0.0534 0.93931 -0.3389
vn 0.0534 0.93931 -0.3389
vn 0 0.97314 -0.23021
vn 0 0.96715 -0.25421
vn 0 0 -1
vn 0 0.99506 -0.0993
vt 0.375 0.5
vt 0.625 0.5
vt 0.625 0.75
vt 0.375 0.75
vt 0.63674 0.5
vt 0.75 0.5
vt 0.75 0.75
vt 0.63674 0.75
vt 0.375 0.76174
vt 0.625 0.76174
vt 0.625 0.875
vt 0.375 0.875
vt 0.375 0.48826
vt 0.625 0.48826
vt 0.375 0.375
vt 0.625 0.375
f 1/1/1 2/2/1 3/3/1
f 1/1/1 3/3/1 4/4/1
f 5/5/2 6/6/2 7/7/2
f 5/5/2 7/7/2 8/8/2
f 9/9/3 10/10/3 11/11/3
f 9/9/3 11/11/3 12/12/3
f 4/4/3 3/3/3 10/10/3
f 4/4/3 10/10/3 9/9/3
f 5/5/4 8/8/4 13/8/4
f 5/5/4 13/8/4 14/5/4
f 15/2/2 14/5/2 13/8/2
f 15/2/2 13/8/2 16/3/2
f 10/10/3 3/3/3 16/3/3
f 10/10/3 16/3/3 17/10/3
f 3/3/1 2/2/1 15/2/1
f 3/3/1 15/2/1 16/3/1
f 18/1/4 19/4/4 20/3/4
f 18/1/4 20/3/4 21/2/4
f 22/5/2 23/8/2 7/7/2
f 22/5/2 7/7/2 6/6/2
f 24/9/3 12/12/3 11/11/3
f 24/9/3 11/11/3 25/10/3
f 19/4/3 24/9/3 25/10/3
f 19/4/3 25/10/3 20/3/3
f 22/5/1 26/5/1 27/8/1
f 22/5/1 27/8/1 23/8/1
f 28/2/2 29/3/2 27/8/2
f 28/2/2 27/8/2 26/5/2
f 25/10/3 30/10/3 29/3/3
f 25/10/3 29/3/3 20/3/3
f 20/3/4 29/3/4 28/2/4
f 20/3/4 28/2/4 21/2/4
f 31/1/1 32/2/1 33/3/1
f 31/1/1 33/3/1 34/4/1
f 35/5/5 36/6/5 37/7/5
f 35/5/5 37/7/5 38/8/5
f 35/5/4 38/8/4 39/8/4
f 35/5/4 39/8/4 40/5/4
f 41/2/6 40/5/6 39/8/6
f 41/2/6 39/8/6 42/3/6
f 33/3/1 32/2/1 41/2/1
f 33/3/1 41/2/1 42/3/1
f 43/1/4 44/4/4 45/3/4
f 43/1/4 45/3/4 46/2/4
f 47/5/5 48/8/5 37/7/5
f 47/5/5 37/7/5 36/6/5
f 47/5/1 49/5/1 50/8/1
f 47/5/1 50/8/1 48/8/1
f 51/2/7 52/3/7 50/8/7
f 51/2/7 50/8/7 49/5/7
f 45/3/4 52/3/4 51/2/4
f 45/3/4 51/2/4 46/2/4
f 53/1/1 54/2/1 55/3/1
f 53/1/1 55/3/1 56/4/1
f 57/5/8 58/6/8 59/7/8
f 57/5/8 59/7/8 60/8/8
f 57/5/4 60/8/4 61/8/4
f 57/5/4 61/8/4 62/5/4
f 63/2/9 62/5/9 61/8/9
f 63/2/9 61/8/9 64/3/9
f 55/3/1 54/2/1 63/2/1
f 55/3/1 63/2/1 64/3/1
f 65/1/4 66/4/4 67/3/4
f 65/1/4 67/3/4 68/2/4
f 69/5/8 70/8/8 59/7/8
f 69/5/8 59/7/8 58/6/8
f 69/5/1 71/5/1 72/8/1
f 69/5/1 72/8/1 70/8/1
f 73/2/10 74/3/10 72/8/10
f 73/2/10 72/8/10 71/5/10
f 67/3/4 74/3/4 73/2/4
f 67/3/4 73/2/4 68/2/4
f 75/1/1 76/2/1 77/3/1
f 75/1/1 77/3/1 78/4/1
f 79/5/11 80/6/11 81/7/11
f 79/5/11 81/7/11 82/8/11
f 79/5/4 82/8/4 83/8/4
f 79/5/4 83/8/4 84/5/4
f 85/2/12 84/5/12 83/8/12
f 85/2/12 83/8/12 86/3/12
f 77/3/1 76/2/1 85/2/1
f 77/3/1 85/2/1 86/3/1
f 87/1/4 88/4/4 89/3/4
f 87/1/4 89/3/4 90/2/4
f 91/5/11 92/8/11 81/7/11
f 91/5/11 81/7/11 80/6/11
f 91/5/1 93/5/1 94/8/1
f 91/5/1 94/8/1 92/8/1
f 95/2/13 96/3/13 94/8/13
f 95/2/13 94/8/13 93/5/13
f 89/3/4 96/3/4 95/2/4
f 89/3/4 95/2/4 90/2/4
f 97/1/1 98/2/1 99/3/1
f 97/1/1 99/3/1 100/4/1
f 101/5/14 102/6/14 103/7/14
f 101/5/14 103/7/14 104/8/14
f 101/5/4 104/8/4 105/8/4
f 101/5/4 105/8/4 106/5/4
f 107/2/15 106/5/15 105/8/15
f 107/2/15 105/8/15 108/3/15
f 99/3/1 98/2/1 107/2/1
f 99/3/1 107/2/1 108/3/1
f 109/1/4 110/4/4 111/3/4
f 109/1/4 111/3/4 112/2/4
f 113/5/14 114/8/14 103/7/14
f 113/5/14 103/7/14 102/6/14
f 113/5/1 115/5/1 116/8/1
f 113/5/1 116/8/1 114/8/1
f 117/2/16 118/3/16 116/8/16
f 117/2/16 116/8/16 115/5/16
f 111/3/4 118/3/4 117/2/4
f 111/3/4 117/2/4 112/2/4
f 119/1/1 120/2/1 121/3/1
f 119/1/1 121/3/1 122/4/1
f 123/5/17 124/6/17 125/7/17
f 123/5/17 125/7/17 126/8/17
f 123/5/4 126/8/4 127/8/4
f 123/5/4 127/8/4 128/5/4
f 129/2/18 128/5/18 127/8/18
f 129/2/18 127/8/18 130/3/18
f 121/3/1 120/2/1 129/2/1
f 121/3/1 129/2/1 130/3/1
f 131/1/4 132/4/4 133/3/4
f 131/1/4 133/3/4 134/2/4
f 135/5/17 136/8/17 125/7/17
f 135/5/17 125/7/17 124/6/17
f 135/5/1 137/5/1 138/8/1
f 135/5/1 138/8/1 136/8/1
f 139/2/19 140/3/19 138/8/19
f 139/2/19 138/8/19 137/5/19
f 133/3/4 140/3/4 139/2/4
f 133/3/4 139/2/4 134/2/4
f 141/1/1 142/2/1 143/3/1
f 141/1/1 143/3/1 144/4/1
f 145/5/20 146/6/20 147/7/20
f 145/5/20 147/7/20 148/8/20
f 145/5/4 148/8/4 149/8/4
f 145/5/4 149/8/4 150/5/4
f 151/2/21 150/5/21 149/8/21
f 151/2/21 149/8/21 152/3/21
f 143/3/1 142/2/1 151/2/1
f 143/3/1 151/2/1 152/3/1
f 153/1/4 154/4/4 155/3/4
f 153/1/4 155/3/4 156/2/4
f 157/5/20 158/8/20 147/7/20
f 157/5/20 147/7/20 146/6/20
f 157/5/1 159/5/1 160/8/1
f 157/5/1 160/8/1 158/8/1
f 161/2/22 162/3/22 160/8/22
f 161/2/22 160/8/22 159/5/22
f 155/3/4 162/3/4 161/2/4
f 155/3/4 161/2/4 156/2/4
f 163/1/1 164/2/1 165/3/1
f 163/1/1 165/3/1 166/4/1
f 167/5/23 168/6/23 169/7/23
f 167/5/23 169/7/23 170/8/23
f 167/5/4 170/8/4 171/8/4
f 167/5/4 171/8/4 172/5/4
f 173/2/24 172/5/24 171/8/24
f 173/2/24 171/8/24 174/3/24
f 165/3/1 164/2/1 173/2/1
f 165/3/1 173/2/1 174/3/1
f 175/1/4 176/4/4 177/3/4
f 175/1/4 177/3/4 178/2/4
f 179/5/23 180/8/23 169/7/23
f 179/5/23 169/7/23 168/6/23
f 179/5/1 181/5/1 182/8/1
f 179/5/1 182/8/1 180/8/1
f 183/2/25 184/3/25 182/8/25
f 183/2/25 182/8/25 181/5/25
f 177/3/4 184/3/4 183/2/4
f 177/3/4 183/2/4 178/2/4
f 185/1/1 186/2/1 187/3/1
f 185/1/1 187/3/1 188/4/1
f 189/5/26 190/6/26 191/7/26
f 189/5/26 191/7/26 192/8/26
f 189/5/4 192/8/4 193/8/4
f 189/5/4 193/8/4 194/5/4
f 195/2/27 194/5/27 193/8/27
f 195/2/27 193/8/27 196/3/27
f 187/3/1 186/2/1 195/2/1
f 187/3/1 195/2/1 196/3/1
f 197/1/4 198/4/4 199/3/4
f 197/1/4 199/3/4 200/2/4
f 201/5/26 202/8/26 191/7/26
f 201/5/26 191/7/26 190/6/26
f 201/5/1 203/5/1 204/8/1
f 201/5/1 204/8/1 202/8/1
f 205/2/27 206/3/27 204/8/27
f 205/2/27 204/8/27 203/5/27
f 199/3/4 206/3/4 205/2/4
f 199/3/4 205/2/4 200/2/4
f 207/13/28 208/14/28 209/2/28
f 207/13/28 209/2/28 210/1/28
f 210/1/1 209/2/1 211/3/1
f 210/1/1 211/3/1 212/4/1
f 213/5/29 214/6/29 215/7/29
f 213/5/29 215/7/29 216/8/29
f 213/5/4 216/8/4 217/8/4
f 213/5/4 217/8/4 218/5/4
f 219/15/28 220/16/28 208/14/28
f 219/15/28 208/14/28 207/13/28
f 221/2/29 218/5/29 217/8/29
f 221/2/29 217/8/29 222/3/29
f 209/2/28 208/14/28 223/14/28
f 209/2/28 223/14/28 221/2/28
f 211/3/1 209/2/1 221/2/1
f 211/3/1 221/2/1 222/3/1
f 224/13/28 225/1/28 226/2/28
f 224/13/28 226/2/28 227/14/28
f 225/1/4 228/4/4 229/3/4
f 225/1/4 229/3/4 226/2/4
f 230/5/29 231/8/29 215/7/29
f 230/5/29 215/7/29 214/6/29
f 230/5/1 232/5/1 233/8/1
f 230/5/1 233/8/1 231/8/1
f 219/15/28 224/13/28 227/14/28
f 219/15/28 227/14/28 220/16/28
f 234/2/29 235/3/29 233/8/29
f 234/2/29 233/8/29 232/5/29
f 226/2/28 234/2/28 236/14/28
f 226/2/28 236/14/28 227/14/28
f 229/3/4 235/3/4 234/2/4
f 229/3/4 234/2/4 226/2/4
# Vertices: 236, normals: 29, texture coordinates: 16, faces: 224

