# File generated by ImageToStl.com - Free Image and 3D model conversion tools

o obj1
v 1 -0.29299939 -0.40975177
v 1 0.16551614 -0.40975177
v 1 0.16551614 0.40975177
v 1 -0.29299939 0.40975177
v 0.9060607 0.16551614 -0.40975177
v 0 0.16551614 -0.40975177
v 0 0.16551614 0.40975177
v 0.9060607 0.16551614 0.40975177
v 0.9060607 -0.29299939 0.40975177
v 0.9060607 0.16551614 0.40975177
v 0 0.16551614 0.40975177
v 0 -0.29299939 0.40975177
v 0.9060607 0.37146229 0.40975177
v 0.9060607 0.37146229 -0.40975177
v 1 0.37146229 -0.40975177
v 1 0.37146229 0.40975177
v 0.9060607 0.37146229 0.40975177
v -1 -0.29299939 -0.40975177
v -1 -0.29299939 0.40975177
v -1 0.16551614 0.40975177
v -1 0.16551614 -0.40975177
v -0.9060607 0.16551614 -0.40975177
v -0.9060607 0.16551614 0.40975177
v -0.9060607 -0.29299939 0.40975177
v -0.9060607 0.16551614 0.40975177
v -0.9060607 0.37146229 -0.40975177
v -0.9060607 0.37146229 0.40975177
v -1 0.37146229 -0.40975177
v -1 0.37146229 0.40975177
v -0.9060607 0.37146229 0.40975177
v 1.5374074 -0.50946844 -1.7919786
v 1.5374074 -0.05095288 -1.7919786
v 1.22379732 0.14666763 -1.03485608
v 1.22379732 -0.3118479 -1.03485608
v 1.45061874 -0.02478684 -1.82792759
v 0.61352825 0.1171076 -2.17466187
v 0.29991817 0.16551614 -1.41753936
v 1.13700867 0.15392718 -1.07080507
v 1.13700867 0.3545804 -1.07080507
v 1.45061874 0.17239177 -1.82792759
v 1.5374074 0.15886113 -1.7919786
v 1.22379732 0.35375318 -1.03485608
v -0.31035137 -0.29299939 -2.55734539
v -0.62396145 -0.29299939 -1.80022287
v -0.62396145 0.16551614 -1.80022287
v -0.31035137 0.16551614 -2.55734539
v -0.22356272 0.16551614 -2.5213964
v -0.53717279 0.16551614 -1.76427388
v -0.22356272 0.37146229 -2.5213964
v -0.53717279 0.37146229 -1.76427388
v -0.31035137 0.37146229 -2.55734539
v -0.62396145 0.37146229 -1.80022287
v 2.56286311 -1.20504951 -2.86333251
v 2.56286311 -0.74653393 -2.86333251
v 1.98338652 -0.32725361 -2.28385615
v 1.98338652 -0.7857691 -2.28385615
v 2.49643779 -0.72301459 -2.9297576
v 1.85575581 -0.48349732 -3.57043934
v 1.27627945 -0.16446337 -2.99096298
v 1.91696119 -0.30579454 -2.35028124
v 1.91696119 -0.11158174 -2.35028124
v 2.49643779 -0.51165247 -2.9297576
v 2.56286311 -0.53341979 -2.86333251
v 1.98338652 -0.11560053 -2.28385615
v 1.14864922 -0.49058819 -4.27754641
v 0.56917286 -0.31745967 -3.69807005
v 0.56917286 0.09657987 -3.69807005
v 1.14864922 -0.1089597 -4.27754641
v 1.21507454 -0.20950964 -4.21112108
v 0.63559818 0.01889639 -3.63164473
v 1.21507454 0.03529295 -4.21112108
v 0.63559818 0.26100776 -3.63164473
v 1.14864922 0.06051183 -4.27754641
v 0.56917286 0.27461112 -3.69807005
v 3.92024946 -1.94803429 -3.46070957
v 3.92024946 -1.48951876 -3.46070957
v 3.16312695 -1.10040665 -3.14709949
v 3.16312695 -1.55892217 -3.14709949
v 3.88430071 -1.49017048 -3.54749823
v 3.53756618 -1.35886037 -4.3845892
v 2.78044367 -0.9924742 -4.07097912
v 3.12717795 -1.0978452 -3.23388815
v 3.12717795 -0.88212281 -3.23388815
v 3.88430071 -1.26322722 -3.54749823
v 3.92024946 -1.27860594 -3.46070957
v 3.16312695 -0.88713604 -3.14709949
v 3.15488291 -1.58121812 -5.30846882
v 2.39776039 -1.1449064 -4.99485874
v 2.39776039 -0.70487785 -4.99485874
v 3.15488291 -1.1227026 -5.30846882
v 3.1908319 -1.19725966 -5.22168016
v 2.43370938 -0.81648922 -4.90807009
v 3.1908319 -0.95976418 -5.22168016
v 2.43370938 -0.5615958 -4.90807009
v 3.15488291 -0.93775791 -5.30846882
v 2.39776039 -0.54319257 -4.99485874
v 5.40291739 -2.29299927 -3.58710456
v 5.40291739 -1.83448386 -3.58710456
v 5.40291739 -1.83448386 -3.49316525
v 5.40291739 -2.29299927 -3.49316525
v 4.58341408 -1.71694112 -3.49316525
v 4.58341408 -2.17545652 -3.49316525
v 5.40291739 -1.83448386 -3.58710456
v 5.40291786 -1.83448386 -4.49316502
v 4.58341408 -1.71694064 -4.49316502
v 4.58341408 -1.71694112 -3.58710456
v 4.58341408 -1.51099491 -3.58710456
v 5.40291739 -1.62853765 -3.58710456
v 5.40291786 -2.29299927 -4.49316502
v 5.40291786 -1.83448386 -4.49316502
v 5.40291739 -1.62853765 -3.49316525
v 4.58341408 -1.51099491 -3.49316525
v 5.40291739 -1.62853765 -3.58710456
v 5.40291786 -2.29299927 -5.39922619
v 5.40291786 -2.29299927 -5.49316502
v 5.40291786 -1.83448386 -5.49316502
v 5.40291786 -1.83448386 -5.39922619
v 4.58341408 -2.17545605 -5.49316502
v 4.58341408 -1.71694064 -5.49316502
v 5.40291786 -1.83448386 -5.39922619
v 4.58341408 -1.71694064 -5.39922619
v 5.40291786 -1.62853765 -5.39922619
v 4.58341408 -1.51099443 -5.39922619
v 5.40291786 -1.62853765 -5.49316502
v 4.58341408 -1.51099443 -5.49316502
v 5.40291786 -1.62853765 -5.39922619
vn 1 0 0
vn 0 1 0
vn 0 0 1
vn -1 0 0
vn 0.92388 0 0.38269
vn 0.1296 0.98706 -0.0944
vn -0.92388 0 -0.38269
vn 0.15421 0.97185 -0.17811
vn 0.036 0.99921 -0.0171
vn 0.70711 0 0.70711
vn 0.41769 0.89589 -0.1514
vn -0.70711 0 -0.70711
vn 0.3996 0.88809 -0.2272
vn 0.38251 0.92242 -0.0532
vn 0.31809 0.94716 -0.0413
vn 0.38269 0 0.92388
vn 0.43048 0.90116 -0.0509
vn -0.38269 0 -0.92388
vn 0.42941 0.90023 -0.0721
vn 0.4418 0.89711 -0.0021
vn 0.4677 0.8838 0.012
vn 0.142 0.98987 0
vn 0 0 -1
vn 0.94147 0 0.33709
vn 0.0093 0.99968 -0.0236
vn -0.94405 0 -0.32982
vn 0.0076 0.99996 -0.0045
vn 0.96485 0 0.26279
vn -0.96531 0 -0.2611
vn 0.74081 0 0.67171
vn 0.2787 0.92491 -0.2586
vn -0.74597 0 -0.66598
vn 0.28569 0.94547 -0.1564
vn 0.19559 0.97866 -0.063
vn 0.79087 0 0.61198
vn 0.0987 0.995 -0.0154
vn -0.79192 0 -0.61062
vn 0.42739 0 0.90407
vn 0.4489 0.88159 -0.1459
vn -0.43429 0 -0.90077
vn 0.45359 0.88599 -0.0963
vn 0.44919 0.89299 -0.0282
vn 0.49647 0 0.86805
vn 0.42509 0.90477 -0.0264
vn -0.49799 0 -0.86718
vn 0.0489 0 0.9988
vn 0.33301 0.94282 0.014
vn -0.0566 0 -0.9984
vn 0.31841 0.94792 0.0081
vn 0.3406 0.94001 0.0194
vn 0.1265 0 0.99197
vn 0.37422 0.92655 0.0384
vn -0.12821 0 -0.99175
vt 0.375 0.5
vt 0.625 0.5
vt 0.625 0.75
vt 0.375 0.75
vt 0.63674 0.5
vt 0.75 0.5
vt 0.75 0.75
vt 0.63674 0.75
vt 0.375 0.76174
vt 0.625 0.76174
vt 0.625 0.875
vt 0.375 0.875
vt 0.375 0.48826
vt 0.625 0.48826
vt 0.375 0.375
vt 0.625 0.375
f 1/1/1 2/2/1 3/3/1
f 1/1/1 3/3/1 4/4/1
f 5/5/2 6/6/2 7/7/2
f 5/5/2 7/7/2 8/8/2
f 9/9/3 10/10/3 11/11/3
f 9/9/3 11/11/3 12/12/3
f 4/4/3 3/3/3 10/10/3
f 4/4/3 10/10/3 9/9/3
f 5/5/4 8/8/4 13/8/4
f 5/5/4 13/8/4 14/5/4
f 15/2/2 14/5/2 13/8/2
f 15/2/2 13/8/2 16/3/2
f 10/10/3 3/3/3 16/3/3
f 10/10/3 16/3/3 17/10/3
f 3/3/1 2/2/1 15/2/1
f 3/3/1 15/2/1 16/3/1
f 18/1/4 19/4/4 20/3/4
f 18/1/4 20/3/4 21/2/4
f 22/5/2 23/8/2 7/7/2
f 22/5/2 7/7/2 6/6/2
f 24/9/3 12/12/3 11/11/3
f 24/9/3 11/11/3 25/10/3
f 19/4/3 24/9/3 25/10/3
f 19/4/3 25/10/3 20/3/3
f 22/5/1 26/5/1 27/8/1
f 22/5/1 27/8/1 23/8/1
f 28/2/2 29/3/2 27/8/2
f 28/2/2 27/8/2 26/5/2
f 25/10/3 30/10/3 29/3/3
f 25/10/3 29/3/3 20/3/3
f 20/3/4 29/3/4 28/2/4
f 20/3/4 28/2/4 21/2/4
f 31/1/5 32/2/5 33/3/5
f 31/1/5 33/3/5 34/4/5
f 35/5/6 36/6/6 37/7/6
f 35/5/6 37/7/6 38/8/6
f 35/5/7 38/8/7 39/8/7
f 35/5/7 39/8/7 40/5/7
f 41/2/8 40/5/8 39/8/8
f 41/2/8 39/8/8 42/3/8
f 33/3/5 32/2/5 41/2/5
f 33/3/5 41/2/5 42/3/5
f 43/1/7 44/4/7 45/3/7
f 43/1/7 45/3/7 46/2/7
f 47/5/9 48/8/9 37/7/9
f 47/5/9 37/7/9 36/6/9
f 47/5/5 49/5/5 50/8/5
f 47/5/5 50/8/5 48/8/5
f 51/2/2 52/3/2 50/8/2
f 51/2/2 50/8/2 49/5/2
f 45/3/7 52/3/7 51/2/7
f 45/3/7 51/2/7 46/2/7
f 53/1/10 54/2/10 55/3/10
f 53/1/10 55/3/10 56/4/10
f 57/5/11 58/6/11 59/7/11
f 57/5/11 59/7/11 60/8/11
f 57/5/12 60/8/12 61/8/12
f 57/5/12 61/8/12 62/5/12
f 63/2/13 62/5/13 61/8/13
f 63/2/13 61/8/13 64/3/13
f 55/3/10 54/2/10 63/2/10
f 55/3/10 63/2/10 64/3/10
f 65/1/12 66/4/12 67/3/12
f 65/1/12 67/3/12 68/2/12
f 69/5/14 70/8/14 59/7/14
f 69/5/14 59/7/14 58/6/14
f 69/5/10 71/5/10 72/8/10
f 69/5/10 72/8/10 70/8/10
f 73/2/15 74/3/15 72/8/15
f 73/2/15 72/8/15 71/5/15
f 67/3/12 74/3/12 73/2/12
f 67/3/12 73/2/12 68/2/12
f 75/1/16 76/2/16 77/3/16
f 75/1/16 77/3/16 78/4/16
f 79/5/17 80/6/17 81/7/17
f 79/5/17 81/7/17 82/8/17
f 79/5/18 82/8/18 83/8/18
f 79/5/18 83/8/18 84/5/18
f 85/2/19 84/5/19 83/8/19
f 85/2/19 83/8/19 86/3/19
f 77/3/16 76/2/16 85/2/16
f 77/3/16 85/2/16 86/3/16
f 87/1/18 88/4/18 89/3/18
f 87/1/18 89/3/18 90/2/18
f 91/5/20 92/8/20 81/7/20
f 91/5/20 81/7/20 80/6/20
f 91/5/16 93/5/16 94/8/16
f 91/5/16 94/8/16 92/8/16
f 95/2/21 96/3/21 94/8/21
f 95/2/21 94/8/21 93/5/21
f 89/3/18 96/3/18 95/2/18
f 89/3/18 95/2/18 90/2/18
f 97/13/1 98/14/1 99/2/1
f 97/13/1 99/2/1 100/1/1
f 100/1/3 99/2/3 101/3/3
f 100/1/3 101/3/3 102/4/3
f 103/5/22 104/6/22 105/7/22
f 103/5/22 105/7/22 106/8/22
f 103/5/23 106/8/23 107/8/23
f 103/5/23 107/8/23 108/5/23
f 109/15/1 110/16/1 98/14/1
f 109/15/1 98/14/1 97/13/1
f 111/2/22 108/5/22 107/8/22
f 111/2/22 107/8/22 112/3/22
f 99/2/1 98/14/1 113/14/1
f 99/2/1 113/14/1 111/2/1
f 101/3/3 99/2/3 111/2/3
f 101/3/3 111/2/3 112/3/3
f 114/13/1 115/1/1 116/2/1
f 114/13/1 116/2/1 117/14/1
f 115/1/23 118/4/23 119/3/23
f 115/1/23 119/3/23 116/2/23
f 120/5/22 121/8/22 105/7/22
f 120/5/22 105/7/22 104/6/22
f 120/5/3 122/5/3 123/8/3
f 120/5/3 123/8/3 121/8/3
f 109/15/1 114/13/1 117/14/1
f 109/15/1 117/14/1 110/16/1
f 124/2/22 125/3/22 123/8/22
f 124/2/22 123/8/22 122/5/22
f 116/2/1 124/2/1 126/14/1
f 116/2/1 126/14/1 117/14/1
f 119/3/23 125/3/23 124/2/23
f 119/3/23 124/2/23 116/2/23
f 1/1/24 34/4/24 33/3/24
f 1/1/24 33/3/24 2/2/24
f 15/2/24 2/2/24 33/3/24
f 15/2/24 33/3/24 42/3/24
f 14/5/25 15/2/25 42/3/25
f 14/5/25 42/3/25 39/8/25
f 14/5/26 39/8/26 38/8/26
f 14/5/26 38/8/26 5/5/26
f 6/6/27 5/5/27 38/8/27
f 6/6/27 38/8/27 37/7/27
f 6/6/2 37/7/2 48/8/2
f 6/6/2 48/8/2 22/5/2
f 26/5/28 22/5/28 48/8/28
f 26/5/28 48/8/28 50/8/28
f 26/5/2 50/8/2 52/3/2
f 26/5/2 52/3/2 28/2/2
f 28/2/29 52/3/29 45/3/29
f 28/2/29 45/3/29 21/2/29
f 18/1/29 21/2/29 45/3/29
f 18/1/29 45/3/29 44/4/29
f 31/1/30 56/4/30 55/3/30
f 31/1/30 55/3/30 32/2/30
f 41/2/30 32/2/30 55/3/30
f 41/2/30 55/3/30 64/3/30
f 40/5/31 41/2/31 64/3/31
f 40/5/31 64/3/31 61/8/31
f 40/5/32 61/8/32 60/8/32
f 40/5/32 60/8/32 35/5/32
f 36/6/33 35/5/33 60/8/33
f 36/6/33 60/8/33 59/7/33
f 36/6/34 59/7/34 70/8/34
f 36/6/34 70/8/34 47/5/34
f 49/5/35 47/5/35 70/8/35
f 49/5/35 70/8/35 72/8/35
f 49/5/36 72/8/36 74/3/36
f 49/5/36 74/3/36 51/2/36
f 51/2/37 74/3/37 67/3/37
f 51/2/37 67/3/37 46/2/37
f 43/1/37 46/2/37 67/3/37
f 43/1/37 67/3/37 66/4/37
f 53/1/38 78/4/38 77/3/38
f 53/1/38 77/3/38 54/2/38
f 63/2/38 54/2/38 77/3/38
f 63/2/38 77/3/38 86/3/38
f 62/5/39 63/2/39 86/3/39
f 62/5/39 86/3/39 83/8/39
f 62/5/40 83/8/40 82/8/40
f 62/5/40 82/8/40 57/5/40
f 58/6/41 57/5/41 82/8/41
f 58/6/41 82/8/41 81/7/41
f 58/6/42 81/7/42 92/8/42
f 58/6/42 92/8/42 69/5/42
f 71/5/43 69/5/43 92/8/43
f 71/5/43 92/8/43 94/8/43
f 71/5/44 94/8/44 96/3/44
f 71/5/44 96/3/44 73/2/44
f 73/2/45 96/3/45 89/3/45
f 73/2/45 89/3/45 68/2/45
f 65/1/45 68/2/45 89/3/45
f 65/1/45 89/3/45 88/4/45
f 75/1/46 102/4/46 101/3/46
f 75/1/46 101/3/46 76/2/46
f 85/2/46 76/2/46 101/3/46
f 85/2/46 101/3/46 112/3/46
f 84/5/47 85/2/47 112/3/47
f 84/5/47 112/3/47 107/8/47
f 84/5/48 107/8/48 106/8/48
f 84/5/48 106/8/48 79/5/48
f 80/6/49 79/5/49 106/8/49
f 80/6/49 106/8/49 105/7/49
f 80/6/50 105/7/50 121/8/50
f 80/6/50 121/8/50 91/5/50
f 93/5/51 91/5/51 121/8/51
f 93/5/51 121/8/51 123/8/51
f 93/5/52 123/8/52 125/3/52
f 93/5/52 125/3/52 95/2/52
f 95/2/53 125/3/53 119/3/53
f 95/2/53 119/3/53 90/2/53
f 87/1/53 90/2/53 119/3/53
f 87/1/53 119/3/53 118/4/53
# Vertices: 126, normals: 53, texture coordinates: 16, faces: 204

