# File generated by ImageToStl.com - Free Image and 3D model conversion tools

o obj1
v 1 -0.29299939 -0.40975201
v 1 0.16551614 -0.40975177
v 1 0.16551614 0.40975177
v 1 -0.29299939 0.40975177
v 0.90605998 0.16551614 -0.40975177
v 0 0.16551614 -0.40975177
v 0 0.16551614 0.40975177
v 0.9060607 0.16551614 0.40975177
v 0.9060607 -0.29299939 0.40975177
v 0.9060607 0.16551614 0.40975177
v 0 0.16551614 0.40975177
v 0 -0.29299939 0.40975177
v 0.9060607 0.37146229 0.40975177
v 0.90605998 0.37146229 -0.40975177
v 1 0.37146229 -0.40975177
v 1 0.37146229 0.40975177
v 0.9060607 0.37146229 0.40975177
v -1 -0.29299939 -0.40975177
v -1 -0.29299939 0.40975177
v -1 0.16551614 0.40975177
v -1 0.16551614 -0.40975177
v -0.90606022 0.16551614 -0.40975177
v -0.9060607 0.16551614 0.40975177
v -0.9060607 -0.29299939 0.40975177
v -0.9060607 0.16551614 0.40975177
v -0.90606022 0.37146229 -0.40975177
v -0.9060607 0.37146229 0.40975177
v -1 0.37146229 -0.40975177
v -1 0.37146229 0.40975177
v -0.9060607 0.37146229 0.40975177
v 4.40975189 -0.29299939 -3.0939393
v 4.40975189 0.16551614 -3.0939393
v 4.40975189 0.16551614 -3
v 4.40975189 -0.29299939 -3
v 3.59024835 0.16551614 -3
v 3.59024835 -0.29299939 -3
v 4.40975189 0.16551614 -3.0939393
v 4.40975189 0.16551614 -4
v 3.59024835 0.16551614 -4
v 3.59024835 0.16551614 -3.0939393
v 1 0.37146229 -3
v 0.90605998 0.37146229 -3.0939393
v 3.59024835 0.37146229 -3.0939393
v 4.40975189 0.37146229 -3.0939393
v 3.59024835 0.37146229 -3
v 4.40975189 -0.29299939 -4
v 4.40975189 0.16551614 -4
v 4.40975189 0.37146229 -3
v -0.90606022 0.37146229 -4.9060607
v -1 0.37146229 -5
v 4.40975189 0.37146229 -3.0939393
v 4.40975189 -0.29299939 -4.9060607
v 4.40975189 -0.29299939 -5
v 4.40975189 0.16551614 -5
v 4.40975189 0.16551614 -4.9060607
v 3.59024835 -0.29299939 -5
v 3.59024835 0.16551614 -5
v 3.59024835 0.37146229 -4.9060607
v 3.59024835 0.37146229 -5
v 4.40975189 0.16551614 -4.9060607
v 3.59024835 0.16551614 -4.9060607
v -1 0.16551614 -5
v 4.40975189 0.37146229 -4.9060607
v -1 -0.29299939 -5
v 4.40975189 0.37146229 -5
v 4.40975189 0.37146229 -4.9060607
v 1 -0.29299939 -3
v 1 0.16551614 -3
v 0.90605998 0.16551614 -3.0939393
v 0 0.16551614 -4
v -0.90606022 0.16551614 -4.9060607
vn 1 0 0
vn 0 1 0
vn 0 0 1
vn -1 0 0
vn 0 0 -1
vt 0.375 0.5
vt 0.625 0.5
vt 0.625 0.75
vt 0.375 0.75
vt 0.63674 0.5
vt 0.75 0.5
vt 0.75 0.75
vt 0.63674 0.75
vt 0.375 0.76174
vt 0.625 0.76174
vt 0.625 0.875
vt 0.375 0.875
vt 0.375 0.48826
vt 0.625 0.48826
vt 0 0
vt 0.375 0.375
vt 0.625 0.375
f 1/1/1 2/2/1 3/3/1
f 1/1/1 3/3/1 4/4/1
f 5/5/2 6/6/2 7/7/2
f 5/5/2 7/7/2 8/8/2
f 9/9/3 10/10/3 11/11/3
f 9/9/3 11/11/3 12/12/3
f 4/4/3 3/3/3 10/10/3
f 4/4/3 10/10/3 9/9/3
f 5/5/4 8/8/4 13/8/4
f 5/5/4 13/8/4 14/5/4
f 15/2/2 14/5/2 13/8/2
f 15/2/2 13/8/2 16/3/2
f 10/10/3 3/3/3 16/3/3
f 10/10/3 16/3/3 17/10/3
f 3/3/1 2/2/1 15/2/1
f 3/3/1 15/2/1 16/3/1
f 18/1/4 19/4/4 20/3/4
f 18/1/4 20/3/4 21/2/4
f 22/5/2 23/8/2 7/7/2
f 22/5/2 7/7/2 6/6/2
f 24/9/3 12/12/3 11/11/3
f 24/9/3 11/11/3 25/10/3
f 19/4/3 24/9/3 25/10/3
f 19/4/3 25/10/3 20/3/3
f 22/5/1 26/5/1 27/8/1
f 22/5/1 27/8/1 23/8/1
f 28/2/2 29/3/2 27/8/2
f 28/2/2 27/8/2 26/5/2
f 25/10/3 30/10/3 29/3/3
f 25/10/3 29/3/3 20/3/3
f 20/3/4 29/3/4 28/2/4
f 20/3/4 28/2/4 21/2/4
f 31/13/1 32/14/1 33/2/1
f 31/13/1 33/2/1 34/1/1
f 34/1/3 33/2/3 35/3/3
f 34/1/3 35/3/3 36/4/3
f 37/5/2 38/6/2 39/7/2
f 37/5/2 39/7/2 40/8/2
f 41/15/2 42/15/2 14/5/2
f 41/15/2 14/5/2 15/2/2
f 37/5/5 40/8/5 43/8/5
f 37/5/5 43/8/5 44/5/5
f 42/15/2 41/15/2 45/3/2
f 42/15/2 45/3/2 43/8/2
f 46/16/1 47/17/1 32/14/1
f 46/16/1 32/14/1 31/13/1
f 48/2/2 44/5/2 43/8/2
f 48/2/2 43/8/2 45/3/2
f 26/5/2 49/15/2 50/15/2
f 26/5/2 50/15/2 28/2/2
f 33/2/1 32/14/1 51/14/1
f 33/2/1 51/14/1 48/2/1
f 35/3/3 33/2/3 48/2/3
f 35/3/3 48/2/3 45/3/3
f 52/13/1 53/1/1 54/2/1
f 52/13/1 54/2/1 55/14/1
f 53/1/5 56/4/5 57/3/5
f 53/1/5 57/3/5 54/2/5
f 49/15/2 58/8/2 59/3/2
f 49/15/2 59/3/2 50/15/2
f 60/5/2 61/8/2 39/7/2
f 60/5/2 39/7/2 38/6/2
f 50/15/5 59/3/5 57/3/5
f 50/15/5 57/3/5 62/15/5
f 62/15/4 21/2/4 28/2/4
f 62/15/4 28/2/4 50/15/4
f 60/5/3 63/5/3 58/8/3
f 60/5/3 58/8/3 61/8/3
f 18/1/4 21/2/4 62/15/4
f 18/1/4 62/15/4 64/15/4
f 46/16/1 52/13/1 55/14/1
f 46/16/1 55/14/1 47/17/1
f 65/2/2 59/3/2 58/8/2
f 65/2/2 58/8/2 63/5/2
f 64/15/5 62/15/5 57/3/5
f 64/15/5 57/3/5 56/4/5
f 54/2/1 65/2/1 66/14/1
f 54/2/1 66/14/1 55/14/1
f 57/3/5 59/3/5 65/2/5
f 57/3/5 65/2/5 54/2/5
f 1/1/1 67/15/1 68/15/1
f 1/1/1 68/15/1 2/2/1
f 36/4/3 35/3/3 68/15/3
f 36/4/3 68/15/3 67/15/3
f 41/15/3 68/15/3 35/3/3
f 41/15/3 35/3/3 45/3/3
f 2/2/1 68/15/1 41/15/1
f 2/2/1 41/15/1 15/2/1
f 42/15/5 43/8/5 40/8/5
f 42/15/5 40/8/5 69/15/5
f 42/15/4 69/15/4 5/5/4
f 42/15/4 5/5/4 14/5/4
f 40/8/2 39/7/2 70/15/2
f 40/8/2 70/15/2 69/15/2
f 5/5/2 69/15/2 70/15/2
f 5/5/2 70/15/2 6/6/2
f 61/8/2 71/15/2 70/15/2
f 61/8/2 70/15/2 39/7/2
f 22/5/2 6/6/2 70/15/2
f 22/5/2 70/15/2 71/15/2
f 49/15/1 26/5/1 22/5/1
f 49/15/1 22/5/1 71/15/1
f 49/15/3 71/15/3 61/8/3
f 49/15/3 61/8/3 58/8/3
# Vertices: 71, normals: 5, texture coordinates: 17, faces: 104

