# File generated by ImageToStl.com - Free Image and 3D model conversion tools

o obj1
v 1 -0.29299939 -0.40975177
v 1 0.16551614 -0.40975177
v 1 0.16551614 0.40975177
v 1 -0.29299939 0.40975177
v 0.90606058 0.16551614 -0.40975177
v 0 0.16551614 -0.40975177
v 0 0.16551614 0.40975177
v 0.90606058 0.16551614 0.40975177
v 0.90606058 -0.29299939 0.40975177
v 0.90606058 0.16551614 0.40975177
v 0 0.16551614 0.40975177
v 0 -0.29299939 0.40975177
v 0.90606058 0.37146229 0.40975177
v 0.90606058 0.37146229 -0.40975177
v 1 0.37146229 -0.40975177
v 1 0.37146229 0.40975177
v 0.90606058 0.37146229 0.40975177
v -1 -0.29299939 -0.40975177
v -1 -0.29299939 0.40975177
v -1 0.16551614 0.40975177
v -1 0.16551614 -0.40975177
v -0.90606058 0.16551614 -0.40975177
v -0.90606058 0.16551614 0.40975177
v -0.90606058 -0.29299939 0.40975177
v -0.90606058 0.16551614 0.40975177
v -0.90606058 0.37146229 -0.40975177
v -0.90606058 0.37146229 0.40975177
v -1 0.37146229 -0.40975177
v -1 0.37146229 0.40975177
v -0.90606058 0.37146229 0.40975177
v 1.59024918 -0.35043129 -2.63900661
v 1.59024918 0.09795024 -2.63900661
v 2.40975285 -0.0031486 -2.63900661
v 2.40975285 -0.44035155 -2.63900661
v 1.59024918 0.10264633 -2.54506731
v 1.59024918 0.13671884 -1.63900673
v 2.40975285 0.08762942 -1.63900673
v 2.40975285 0.00616863 -2.54506731
v 2.40975285 0.20569129 -2.54506731
v 1.59024918 0.30287635 -2.54506731
v 1.59024918 0.30234176 -2.63900661
v 2.40975285 0.19982103 -2.63900661
v 1.59024918 -0.29299936 -0.63900673
v 2.40975285 -0.29299936 -0.63900673
v 2.40975285 0.16537197 -0.63900673
v 1.59024918 0.16551614 -0.63900673
v 1.59024918 0.16395392 -0.73294616
v 2.40975285 0.15488428 -0.73294616
v 1.59024918 0.37146088 -0.73294616
v 2.40975285 0.36692631 -0.73294616
v 1.59024918 0.37146226 -0.63900673
v 2.40975285 0.36912447 -0.63900673
v 5 -0.44450378 -3.68776608
v 5 0.0045964 -3.68776608
v 5 0.09041505 -2.86826229
v 5 -0.34986007 -2.86826229
v 4.9060607 -0.01657201 -3.68776608
v 4 -0.14812922 -3.68776608
v 4 -0.04867382 -2.86826229
v 4.9060607 0.04705017 -2.86826229
v 4.9060607 0.27348715 -2.86826229
v 4.9060607 0.19519867 -3.68776608
v 5 0.20588499 -3.68776608
v 5 0.28085554 -2.86826229
v 3 -0.6335535 -3.68776608
v 3 -0.52472812 -2.86826229
v 3 -0.10601097 -2.86826229
v 3 -0.24357617 -3.68776608
v 3.0939393 -0.28049815 -3.68776608
v 3.0939393 -0.11775404 -2.86826229
v 3.0939393 -0.05821869 -3.68776608
v 3.0939393 0.09281394 -2.86826229
v 3 -0.06612211 -3.68776608
v 3 0.09535861 -2.86826229
v 1.59024739 -1.33502138 -5.91701889
v 1.59024739 -0.91272855 -5.91701889
v 2.40975118 -0.70798069 -5.91701889
v 2.40975118 -1.14075053 -5.91701889
v 1.59024739 -0.89842725 -5.82308006
v 1.59024739 -0.73495865 -4.91701889
v 2.40975118 -0.594064 -4.91701937
v 2.40975118 -0.69609386 -5.82308006
v 2.40975118 -0.5044452 -5.82308006
v 1.59024739 -0.70173359 -5.82308006
v 1.59024739 -0.71170783 -5.91701889
v 2.40975118 -0.5057869 -5.91701889
v 1.59024739 -0.78321964 -3.91701913
v 2.40975118 -0.70387119 -3.91701913
v 2.40975118 -0.33359817 -3.91701913
v 1.59024739 -0.41007149 -3.91701913
v 1.59024739 -0.51196861 -4.01095867
v 2.40975118 -0.43732405 -4.01095867
v 1.59024739 -0.26566574 -4.01095867
v 2.40975118 -0.18834427 -4.01095867
v 1.59024739 -0.24355552 -3.91701913
v 2.40975118 -0.16922465 -3.91701913
v 1 -1.62832367 -6.96578026
v 1 -1.24168634 -6.96578026
v 1 -1.06876087 -6.14627647
v 1 -1.47382224 -6.14627647
v 0.90606058 -1.28072846 -6.96578026
v 0 -1.12532282 -6.96578026
v 0 -0.98816133 -6.14627647
v 0.90606058 -1.08649468 -6.14627647
v 0.90606058 -0.87431437 -6.14627647
v 0.90606058 -1.05589747 -6.96578026
v 1 -1.06406045 -6.96578026
v 1 -0.86906546 -6.14627647
v -1 -1.36782372 -6.96578026
v -1 -1.16215348 -6.14627647
v -1 -0.73220176 -6.14627647
v -1 -0.91027486 -6.96578026
v -0.90606058 -0.94183469 -6.96578026
v -0.90606058 -0.82187009 -6.14627647
v -0.90606058 -0.7289229 -6.96578026
v -0.90606058 -0.57524198 -6.14627647
v -1 -0.71088153 -6.96578026
v -1 -0.56022519 -6.14627647
v 1.59024978 -2.10588527 -9.19503593
v 1.59024978 -1.64736986 -9.19503593
v 2.40975356 -1.75412202 -9.19503593
v 2.40975356 -2.21263742 -9.19503593
v 1.59024978 -1.63459373 -9.10109711
v 1.59024978 -1.55903637 -8.19503593
v 2.40975356 -1.65142798 -8.19503593
v 2.40975356 -1.73915577 -9.10109711
v 2.40975356 -1.54230654 -9.10109711
v 1.59024978 -1.43778288 -9.10109711
v 1.59024978 -1.43926442 -9.19503593
v 2.40975356 -1.54694331 -9.19503593
v 1.59024978 -1.73875749 -7.19503593
v 2.40975356 -1.90432417 -7.19503593
v 2.40975356 -1.47378564 -7.19503593
v 1.59024978 -1.34741247 -7.19503593
v 1.59024978 -1.43067884 -7.28897572
v 2.40975356 -1.51068318 -7.28897572
v 1.59024978 -1.18915093 -7.28897572
v 2.40975356 -1.29376662 -7.28897572
v 1.59024978 -1.17461681 -7.19503593
v 2.40975356 -1.27867579 -7.19503593
v 4.9060607 -2.29299927 -10.24379539
v 4.9060607 -1.83448386 -10.24379539
v 5 -1.83448386 -10.24379539
v 5 -2.29299927 -10.24379539
v 5 -1.80741572 -9.42429161
v 5 -2.26593113 -9.42429161
v 4.9060607 -1.83448386 -10.24379539
v 4 -1.83448386 -10.24379539
v 4 -1.80741572 -9.42429161
v 4.9060607 -1.80741572 -9.42429161
v 4.9060607 -1.60146952 -9.42429161
v 4.9060607 -1.62853765 -10.24379539
v 4 -2.29299927 -10.24379539
v 4 -1.83448386 -10.24379539
v 5 -1.62853765 -10.24379539
v 5 -1.60146952 -9.42429161
v 4.9060607 -1.62853765 -10.24379539
v 3.0939393 -2.29299927 -10.24379539
v 3 -2.29299927 -10.24379539
v 3 -1.83448386 -10.24379539
v 3.0939393 -1.83448386 -10.24379539
v 3 -2.26593113 -9.42429161
v 3 -1.80741572 -9.42429161
v 3.0939393 -1.83448386 -10.24379539
v 3.0939393 -1.80741572 -9.42429161
v 3.0939393 -1.62853765 -10.24379539
v 3.0939393 -1.60146952 -9.42429161
v 3 -1.62853765 -10.24379539
v 3 -1.60146952 -9.42429161
v 3.0939393 -1.62853765 -10.24379539
vn 1 0 0
vn 0 1 0
vn 0 0 1
vn -1 0 0
vn 0 0 -1
vn 0.0883 0.99407 -0.0634
vn 0.1209 0.99209 -0.0338
vn 0.0354 0.99802 -0.052
vn 0.0042 0.99992 -0.0117
vn -0.1238 0.98744 -0.0982
vn -0.0952 0.99113 -0.0927
vn -0.10911 0.98155 -0.15701
vn -0.028 0.98192 -0.1872
vn -0.20289 0.96887 -0.14189
vn -0.2385 0.96939 -0.0584
vn -0.1277 0.97073 -0.20341
vn -0.09 0.97279 -0.2135
vn 0.65233 0 -0.75793
vn 0.136 0.97107 -0.19629
vn -0.19079 0.97716 -0.0936
vn -0.65002 0 0.75992
vn 0.0151 0.9745 -0.2239
vn -0.16211 0.97813 -0.1303
vn -0.14299 0.97515 -0.16919
vn 0.4271 0 -0.9042
vn 0.18731 0.97044 -0.15221
vn -0.0892 0.97456 -0.20559
vn -0.36208 0 0.93215
vn 0.1705 0.9688 -0.1799
vn 0.65233 0 0.75793
vn -0.0277 0.99689 -0.0738
vn 0.1188 0.98891 -0.0891
vn -0.65002 0 -0.75992
vn -0.048 0.99034 -0.1301
vn 0.0006 0.98638 -0.1645
vn 0.1283 0.99121 -0.0323
vn 0.4271 0 0.9042
vn 0.1066 0.9842 -0.1414
vn -0.36208 0 -0.93215
vn 0.1035 0.98384 -0.14611
vn -0.65233 0 -0.75793
vn 0.1248 0.98008 -0.1545
vn 0.0119 0.99977 -0.0176
vn 0.65002 0 0.75992
vn 0 0.99946 -0.033
vn -0.0047 0.99945 -0.0329
vn -0.0043 0.99966 -0.0258
vn -0.4271 0 -0.9042
vn 0.36208 0 0.93215
vn 0.36208 0 -0.93215
vn -0.1596 0.965 -0.2081
vn -0.4271 0 0.9042
vn 0.0018 0.96119 -0.2759
vn 0.1124 0.94877 -0.29529
vn 0.65002 0 -0.75992
vn 0.11131 0.95724 -0.26701
vn -0.65233 0 0.75793
vn 0.1105 0.97802 -0.1768
vn 0.161 0.97811 -0.1318
vn 0.2001 0.97619 -0.0838
vn 0.227 0.97231 -0.0556
vn 0.047 0.99426 -0.0961
vn 0.0192 0.99314 -0.11531
vn -0.0093 0.98948 -0.1444
vn -0.0074 0.98844 -0.15141
vt 0.375 0.5
vt 0.625 0.5
vt 0.625 0.75
vt 0.375 0.75
vt 0.63674 0.5
vt 0.75 0.5
vt 0.75 0.75
vt 0.63674 0.75
vt 0.375 0.76174
vt 0.625 0.76174
vt 0.625 0.875
vt 0.375 0.875
vt 0.375 0.48826
vt 0.625 0.48826
vt 0.375 0.375
vt 0.625 0.375
f 1/1/1 2/2/1 3/3/1
f 1/1/1 3/3/1 4/4/1
f 5/5/2 6/6/2 7/7/2
f 5/5/2 7/7/2 8/8/2
f 9/9/3 10/10/3 11/11/3
f 9/9/3 11/11/3 12/12/3
f 4/4/3 3/3/3 10/10/3
f 4/4/3 10/10/3 9/9/3
f 5/5/4 8/8/4 13/8/4
f 5/5/4 13/8/4 14/5/4
f 15/2/2 14/5/2 13/8/2
f 15/2/2 13/8/2 16/3/2
f 10/10/3 3/3/3 16/3/3
f 10/10/3 16/3/3 17/10/3
f 3/3/1 2/2/1 15/2/1
f 3/3/1 15/2/1 16/3/1
f 18/1/4 19/4/4 20/3/4
f 18/1/4 20/3/4 21/2/4
f 22/5/2 23/8/2 7/7/2
f 22/5/2 7/7/2 6/6/2
f 24/9/3 12/12/3 11/11/3
f 24/9/3 11/11/3 25/10/3
f 19/4/3 24/9/3 25/10/3
f 19/4/3 25/10/3 20/3/3
f 22/5/1 26/5/1 27/8/1
f 22/5/1 27/8/1 23/8/1
f 28/2/2 29/3/2 27/8/2
f 28/2/2 27/8/2 26/5/2
f 25/10/3 30/10/3 29/3/3
f 25/10/3 29/3/3 20/3/3
f 20/3/4 29/3/4 28/2/4
f 20/3/4 28/2/4 21/2/4
f 31/1/5 32/2/5 33/3/5
f 31/1/5 33/3/5 34/4/5
f 35/5/6 36/6/6 37/7/6
f 35/5/6 37/7/6 38/8/6
f 35/5/3 38/8/3 39/8/3
f 35/5/3 39/8/3 40/5/3
f 41/2/7 40/5/7 39/8/7
f 41/2/7 39/8/7 42/3/7
f 33/3/5 32/2/5 41/2/5
f 33/3/5 41/2/5 42/3/5
f 43/1/3 44/4/3 45/3/3
f 43/1/3 45/3/3 46/2/3
f 47/5/8 48/8/8 37/7/8
f 47/5/8 37/7/8 36/6/8
f 47/5/5 49/5/5 50/8/5
f 47/5/5 50/8/5 48/8/5
f 51/2/9 52/3/9 50/8/9
f 51/2/9 50/8/9 49/5/9
f 45/3/3 52/3/3 51/2/3
f 45/3/3 51/2/3 46/2/3
f 53/1/1 54/2/1 55/3/1
f 53/1/1 55/3/1 56/4/1
f 57/5/10 58/6/10 59/7/10
f 57/5/10 59/7/10 60/8/10
f 57/5/4 60/8/4 61/8/4
f 57/5/4 61/8/4 62/5/4
f 63/2/11 62/5/11 61/8/11
f 63/2/11 61/8/11 64/3/11
f 55/3/1 54/2/1 63/2/1
f 55/3/1 63/2/1 64/3/1
f 65/1/4 66/4/4 67/3/4
f 65/1/4 67/3/4 68/2/4
f 69/5/12 70/8/12 59/7/12
f 69/5/12 59/7/12 58/6/12
f 69/5/1 71/5/1 72/8/1
f 69/5/1 72/8/1 70/8/1
f 73/2/13 74/3/13 72/8/13
f 73/2/13 72/8/13 71/5/13
f 67/3/4 74/3/4 73/2/4
f 67/3/4 73/2/4 68/2/4
f 75/1/5 76/2/5 77/3/5
f 75/1/5 77/3/5 78/4/5
f 79/5/14 80/6/14 81/7/14
f 79/5/14 81/7/14 82/8/14
f 79/5/3 82/8/3 83/8/3
f 79/5/3 83/8/3 84/5/3
f 85/2/15 84/5/15 83/8/15
f 85/2/15 83/8/15 86/3/15
f 77/3/5 76/2/5 85/2/5
f 77/3/5 85/2/5 86/3/5
f 87/1/3 88/4/3 89/3/3
f 87/1/3 89/3/3 90/2/3
f 91/5/16 92/8/16 81/7/16
f 91/5/16 81/7/16 80/6/16
f 91/5/5 93/5/5 94/8/5
f 91/5/5 94/8/5 92/8/5
f 95/2/17 96/3/17 94/8/17
f 95/2/17 94/8/17 93/5/17
f 89/3/3 96/3/3 95/2/3
f 89/3/3 95/2/3 90/2/3
f 53/1/18 78/4/18 77/3/18
f 53/1/18 77/3/18 54/2/18
f 97/1/1 98/2/1 99/3/1
f 97/1/1 99/3/1 100/4/1
f 101/5/19 102/6/19 103/7/19
f 101/5/19 103/7/19 104/8/19
f 63/2/18 54/2/18 77/3/18
f 63/2/18 77/3/18 86/3/18
f 62/5/20 63/2/20 86/3/20
f 62/5/20 86/3/20 83/8/20
f 101/5/4 104/8/4 105/8/4
f 101/5/4 105/8/4 106/5/4
f 62/5/21 83/8/21 82/8/21
f 62/5/21 82/8/21 57/5/21
f 107/2/22 106/5/22 105/8/22
f 107/2/22 105/8/22 108/3/22
f 58/6/23 57/5/23 82/8/23
f 58/6/23 82/8/23 81/7/23
f 58/6/24 81/7/24 92/8/24
f 58/6/24 92/8/24 69/5/24
f 99/3/1 98/2/1 107/2/1
f 99/3/1 107/2/1 108/3/1
f 71/5/25 69/5/25 92/8/25
f 71/5/25 92/8/25 94/8/25
f 109/1/4 110/4/4 111/3/4
f 109/1/4 111/3/4 112/2/4
f 113/5/26 114/8/26 103/7/26
f 113/5/26 103/7/26 102/6/26
f 71/5/27 94/8/27 96/3/27
f 71/5/27 96/3/27 73/2/27
f 73/2/28 96/3/28 89/3/28
f 73/2/28 89/3/28 68/2/28
f 113/5/1 115/5/1 116/8/1
f 113/5/1 116/8/1 114/8/1
f 65/1/28 68/2/28 89/3/28
f 65/1/28 89/3/28 88/4/28
f 117/2/29 118/3/29 116/8/29
f 117/2/29 116/8/29 115/5/29
f 44/4/30 56/4/30 55/3/30
f 44/4/30 55/3/30 45/3/30
f 52/3/30 45/3/30 55/3/30
f 52/3/30 55/3/30 64/3/30
f 111/3/4 118/3/4 117/2/4
f 111/3/4 117/2/4 112/2/4
f 50/8/31 52/3/31 64/3/31
f 50/8/31 64/3/31 61/8/31
f 119/1/5 120/2/5 121/3/5
f 119/1/5 121/3/5 122/4/5
f 123/5/32 124/6/32 125/7/32
f 123/5/32 125/7/32 126/8/32
f 50/8/33 61/8/33 60/8/33
f 50/8/33 60/8/33 48/8/33
f 37/7/34 48/8/34 60/8/34
f 37/7/34 60/8/34 59/7/34
f 123/5/3 126/8/3 127/8/3
f 123/5/3 127/8/3 128/5/3
f 37/7/35 59/7/35 70/8/35
f 37/7/35 70/8/35 38/8/35
f 129/2/36 128/5/36 127/8/36
f 129/2/36 127/8/36 130/3/36
f 39/8/37 38/8/37 70/8/37
f 39/8/37 70/8/37 72/8/37
f 39/8/38 72/8/38 74/3/38
f 39/8/38 74/3/38 42/3/38
f 121/3/5 120/2/5 129/2/5
f 121/3/5 129/2/5 130/3/5
f 42/3/39 74/3/39 67/3/39
f 42/3/39 67/3/39 33/3/39
f 131/1/3 132/4/3 133/3/3
f 131/1/3 133/3/3 134/2/3
f 135/5/40 136/8/40 125/7/40
f 135/5/40 125/7/40 124/6/40
f 34/4/39 33/3/39 67/3/39
f 34/4/39 67/3/39 66/4/39
f 18/1/41 21/2/41 32/2/41
f 18/1/41 32/2/41 31/1/41
f 135/5/5 137/5/5 138/8/5
f 135/5/5 138/8/5 136/8/5
f 21/2/41 28/2/41 41/2/41
f 21/2/41 41/2/41 32/2/41
f 139/2/42 140/3/42 138/8/42
f 139/2/42 138/8/42 137/5/42
f 28/2/43 26/5/43 40/5/43
f 28/2/43 40/5/43 41/2/43
f 22/5/44 35/5/44 40/5/44
f 22/5/44 40/5/44 26/5/44
f 133/3/3 140/3/3 139/2/3
f 133/3/3 139/2/3 134/2/3
f 141/13/5 142/14/5 143/2/5
f 141/13/5 143/2/5 144/1/5
f 144/1/1 143/2/1 145/3/1
f 144/1/1 145/3/1 146/4/1
f 147/5/45 148/6/45 149/7/45
f 147/5/45 149/7/45 150/8/45
f 22/5/46 6/6/46 36/6/46
f 22/5/46 36/6/46 35/5/46
f 5/5/47 47/5/47 36/6/47
f 5/5/47 36/6/47 6/6/47
f 147/5/4 150/8/4 151/8/4
f 147/5/4 151/8/4 152/5/4
f 153/15/5 154/16/5 142/14/5
f 153/15/5 142/14/5 141/13/5
f 155/2/45 152/5/45 151/8/45
f 155/2/45 151/8/45 156/3/45
f 5/5/48 14/5/48 49/5/48
f 5/5/48 49/5/48 47/5/48
f 143/2/5 142/14/5 157/14/5
f 143/2/5 157/14/5 155/2/5
f 145/3/1 143/2/1 155/2/1
f 145/3/1 155/2/1 156/3/1
f 158/13/5 159/1/5 160/2/5
f 158/13/5 160/2/5 161/14/5
f 159/1/4 162/4/4 163/3/4
f 159/1/4 163/3/4 160/2/4
f 164/5/45 165/8/45 149/7/45
f 164/5/45 149/7/45 148/6/45
f 15/2/2 51/2/2 49/5/2
f 15/2/2 49/5/2 14/5/2
f 2/2/49 46/2/49 51/2/49
f 2/2/49 51/2/49 15/2/49
f 164/5/1 166/5/1 167/8/1
f 164/5/1 167/8/1 165/8/1
f 153/15/5 158/13/5 161/14/5
f 153/15/5 161/14/5 154/16/5
f 168/2/45 169/3/45 167/8/45
f 168/2/45 167/8/45 166/5/45
f 1/1/49 43/1/49 46/2/49
f 1/1/49 46/2/49 2/2/49
f 160/2/5 168/2/5 170/14/5
f 160/2/5 170/14/5 161/14/5
f 163/3/4 169/3/4 168/2/4
f 163/3/4 168/2/4 160/2/4
f 75/1/50 100/4/50 99/3/50
f 75/1/50 99/3/50 76/2/50
f 85/2/50 76/2/50 99/3/50
f 85/2/50 99/3/50 108/3/50
f 84/5/51 85/2/51 108/3/51
f 84/5/51 108/3/51 105/8/51
f 84/5/52 105/8/52 104/8/52
f 84/5/52 104/8/52 79/5/52
f 80/6/53 79/5/53 104/8/53
f 80/6/53 104/8/53 103/7/53
f 80/6/54 103/7/54 114/8/54
f 80/6/54 114/8/54 91/5/54
f 93/5/55 91/5/55 114/8/55
f 93/5/55 114/8/55 116/8/55
f 93/5/56 116/8/56 118/3/56
f 93/5/56 118/3/56 95/2/56
f 95/2/57 118/3/57 111/3/57
f 95/2/57 111/3/57 90/2/57
f 87/1/57 90/2/57 111/3/57
f 87/1/57 111/3/57 110/4/57
f 97/1/49 131/1/49 134/2/49
f 97/1/49 134/2/49 98/2/49
f 98/2/49 134/2/49 139/2/49
f 98/2/49 139/2/49 107/2/49
f 107/2/58 139/2/58 137/5/58
f 107/2/58 137/5/58 106/5/58
f 101/5/48 106/5/48 137/5/48
f 101/5/48 137/5/48 135/5/48
f 101/5/59 135/5/59 124/6/59
f 101/5/59 124/6/59 102/6/59
f 113/5/60 102/6/60 124/6/60
f 113/5/60 124/6/60 123/5/60
f 113/5/44 123/5/44 128/5/44
f 113/5/44 128/5/44 115/5/44
f 117/2/61 115/5/61 128/5/61
f 117/2/61 128/5/61 129/2/61
f 112/2/41 117/2/41 129/2/41
f 112/2/41 129/2/41 120/2/41
f 109/1/41 112/2/41 120/2/41
f 109/1/41 120/2/41 119/1/41
f 122/4/39 121/3/39 163/3/39
f 122/4/39 163/3/39 162/4/39
f 130/3/39 169/3/39 163/3/39
f 130/3/39 163/3/39 121/3/39
f 127/8/62 167/8/62 169/3/62
f 127/8/62 169/3/62 130/3/62
f 127/8/37 126/8/37 165/8/37
f 127/8/37 165/8/37 167/8/37
f 125/7/63 149/7/63 165/8/63
f 125/7/63 165/8/63 126/8/63
f 125/7/64 136/8/64 150/8/64
f 125/7/64 150/8/64 149/7/64
f 138/8/33 151/8/33 150/8/33
f 138/8/33 150/8/33 136/8/33
f 138/8/65 140/3/65 156/3/65
f 138/8/65 156/3/65 151/8/65
f 140/3/30 133/3/30 145/3/30
f 140/3/30 145/3/30 156/3/30
f 132/4/30 146/4/30 145/3/30
f 132/4/30 145/3/30 133/3/30
# Vertices: 170, normals: 65, texture coordinates: 16, faces: 284

