# File generated by ImageToStl.com - Free Image and 3D model conversion tools

o obj1
v 1 -0.29299939 -0.40975177
v 1 0.16551614 -0.40975177
v 1 0.16551614 0.40975177
v 1 -0.29299939 0.40975177
v 0.90606058 0.16551614 -0.40975177
v 0 0.16551614 -0.40975177
v 0 0.16551614 0.40975177
v 0.90606058 0.16551614 0.40975177
v 0.90606058 -0.29299939 0.40975177
v 0.90606058 0.16551614 0.40975177
v 0 0.16551614 0.40975177
v 0 -0.29299939 0.40975177
v 0.90606058 0.37146229 0.40975177
v 0.90606058 0.37146229 -0.40975177
v 1 0.37146229 -0.40975177
v 1 0.37146229 0.40975177
v 0.90606058 0.37146229 0.40975177
v -1 -0.29299939 -0.40975177
v -1 -0.29299939 0.40975177
v -1 0.16551614 0.40975177
v -1 0.16551614 -0.40975177
v -0.90606058 0.16551614 -0.40975177
v -0.90606058 0.16551614 0.40975177
v -0.90606058 -0.29299939 0.40975177
v -0.90606058 0.16551614 0.40975177
v -0.84641737 0.25466257 -0.59329677
v -0.90606058 0.37146229 0.40975177
v -0.90606058 0.37146229 0.40975177
v -1 0.37146229 0.40975177
v -1 0.37146229 -0.40975177
v 1.67572331 0.72575498 -2.54506731
v 1.59024918 0.5341289 -1.63900673
v 2.40975285 0.57905483 -1.63900673
v 2.40975285 0.77170795 -2.54506731
v 1.59024918 -0.20434126 -0.63900673
v 2.40975285 -0.14333895 -0.63900673
v 2.40975285 0.3548688 -0.63900673
v 1.59024918 0.30535579 -0.63900673
v 1.59024918 0.37660825 -0.73294616
v 2.40975285 0.41063088 -0.73294616
v 1.59024918 0.55157077 -0.73294616
v 2.40975285 0.59505111 -0.73294616
v 1.59024918 0.53852153 -0.63900673
v 2.40975285 0.58012271 -0.63900673
v 5 0.5809834 -3.68776608
v 5 1.07330489 -3.68776608
v 5 0.87785625 -2.86826229
v 5 0.38945693 -2.86826229
v 4.9060607 1.10634661 -3.68776608
v 4 1.11958015 -3.68776608
v 4 0.91568166 -2.86826229
v 4.9060607 0.90432686 -2.86826229
v 4.9060607 1.10349727 -2.86826229
v 4.90606022 1.30405283 -3.68776608
v 5 1.29186261 -3.68776608
v 5 1.09980011 -2.86826229
v 3.0939393 1.08826423 -3.68776608
v 3.0939393 0.88916397 -2.86826229
v 1.59024739 1.47491634 -5.82308006
v 1.59024739 1.27876687 -4.91701889
v 2.40975118 1.33366275 -4.91701937
v 2.32675743 1.55406916 -5.82308006
v 1.67572236 1.06873369 -4.01095867
v 2.40975118 1.12070537 -4.01095867
v 0.90606058 1.61176074 -6.96578026
v 0 1.45635509 -6.96578026
v 0 1.3191936 -6.14627647
v 0.90606058 1.45786095 -6.14627647
v -1 0.78182495 -6.96578026
v -1 0.57615471 -6.14627647
v -1 1.05802417 -6.14627647
v -1 1.24130714 -6.96578026
v -0.90606058 1.27286696 -6.96578026
v -0.90606058 1.15290236 -6.14627647
v -0.90606058 1.47184753 -6.96578026
v -0.84641725 1.11543036 -5.96273136
v -1 1.29595864 -6.14627647
v -1 1.45380616 -6.96578026
v 1.59024978 1.51988661 -9.19503593
v 1.59024978 1.97840214 -9.19503593
v 2.40975356 2.08515429 -9.19503593
v 2.40975356 1.62663877 -9.19503593
v 1.59024978 1.965626 -9.10109711
v 1.59024978 1.89006865 -8.19503593
v 2.40975356 1.98246026 -8.19503593
v 2.40975356 2.07018805 -9.10109711
v 2.40975356 2.28523111 -9.10109711
v 1.59024978 2.18070745 -9.10109711
v 1.59024978 2.18218899 -9.19503593
v 2.40975356 2.28986788 -9.19503593
v 1.59024978 1.76171112 -7.28897572
v 2.32675862 1.83556926 -7.28897572
v 4.9060607 1.70700061 -10.24379539
v 4.9060607 2.16551614 -10.24379539
v 5 2.16551614 -10.24379539
v 5 1.70700061 -10.24379539
v 5 2.138448 -9.42429161
v 5 1.67993248 -9.42429161
v 4.9060607 2.16551614 -10.24379539
v 4 2.16551614 -10.24379539
v 4 2.138448 -9.42429161
v 4.9060607 2.138448 -9.42429161
v 4.9060607 2.34439421 -9.42429161
v 4.9060607 2.37146235 -10.24379539
v 4 1.70700061 -10.24379539
v 4 2.16551614 -10.24379539
v 5 2.37146235 -10.24379539
v 5 2.34439421 -9.42429161
v 4.9060607 2.37146235 -10.24379539
v 3.0939393 1.70700061 -10.24379539
v 3 1.70700061 -10.24379539
v 3 2.16551614 -10.24379539
v 3.0939393 2.16551614 -10.24379539
v 3 1.67993248 -9.42429161
v 3 2.138448 -9.42429161
v 3.0939393 2.16551614 -10.24379539
v 3.0939393 2.138448 -9.42429161
v 3.0939393 2.37146235 -10.24379539
v 3.0939393 2.34439421 -9.42429161
v 3 2.37146235 -10.24379539
v 3 2.34439421 -9.42429161
v 3.0939393 2.37146235 -10.24379539
v -0.50265419 0.86278236 -4.71214533
v -0.50265419 1.10980105 -4.71214533
v 0 0.66167939 -3.27801418
v 0 0.9031148 -3.27801418
v -0.50265419 0.40294969 -1.84388292
v -0.50265419 0.62232953 -1.84388292
v -0.37654912 0.64942431 -1.93565536
v -0.37654912 0.4603408 -1.93565536
v 0.09393942 0.75299048 -3.27801418
v 0.09393942 0.9139899 -3.27801418
v -0.84641737 0.37146199 -0.59329677
v -0.50265419 0.31580865 -4.71214533
v 0 0.1257939 -3.27801418
v -0.50265419 -0.09230994 -1.84388292
v 2.40497661 1.14555383 -3.92043996
v 1.61844718 1.09029698 -3.92043996
v 1.61844814 0.79443145 -2.63558602
v 2.40497804 0.84440553 -2.63558602
v 3.00466752 1.11790133 -3.63716173
v 3.00466752 0.94668674 -2.91886663
v -0.37654901 0.95644641 -4.62037277
v -0.84641725 1.28075254 -5.96273136
v -0.37654901 1.11060858 -4.62037277
v 4.50265408 1.96828318 -7.99016047
v 4.50265408 1.50976765 -7.99016047
v 4 1.74626768 -6.55602932
v 4 1.23503768 -6.55602932
v 4.50265455 1.43492687 -5.1218977
v 4.50265455 0.9299227 -5.1218977
v 4.50265455 1.65701413 -5.1218977
v 4 1.97727084 -6.55602932
v 4.50265408 2.17529774 -7.99016047
v 4.40871477 2.17312574 -7.99016047
v 3.9060607 1.98314428 -6.55602932
v 4.40871525 1.67160654 -5.1218977
v 4.40871525 1.52635741 -5.1218977
v 3.9060607 1.84762716 -6.55602932
v 4.40871477 2.02264333 -7.99016047
v 4.84841919 2.17888236 -9.24468994
v 2.29693604 1.6268034 -5.92264795
v 4.84841967 1.20562315 -3.86736822
v 1.08688211 1.54425597 -6.20193958
v 1.6781249 1.55816698 -5.92264795
v 1.67812705 1.80318713 -7.18940783
v 1.08688211 1.67863107 -6.91011715
v 2.29693723 1.86582088 -7.18940783
vn 1 0 0
vn 0 1 0
vn 0 0 1
vn -1 0 0
vn 0.98415 -0.17201 0.0432
vn -0.0572 0.97719 0.2045
vn -0.0474 0.9831 0.1768
vn 0 0 -1
vn -0.0513 0.98779 0.1471
vn 0.0132 0.97059 0.2404
vn 0.082 0.96921 0.2322
vn -0.031 0.9706 0.2387
vn -0.0836 0.97032 0.22691
vn -0.0668 0.97094 0.22981
vn -0.15779 0.97225 0.17269
vn -0.0145 0.97753 0.21031
vn -0.0438 0.97474 0.21901
vn -0.18731 0.97044 0.15221
vn 0.96427 -0.24689 -0.0961
vn 0.65233 0 0.75793
vn -0.0168 0.97743 0.21061
vn -0.1188 0.98891 0.0891
vn -0.65002 0 -0.75992
vn -0.0213 0.97636 0.21509
vn -0.0431 0.97416 0.22171
vn -0.1283 0.99121 0.0323
vn -0.1051 0.98389 0.1446
vn 0 0.99946 0.033
vn -0.0293 0.97225 0.23211
vn -0.0782 0.96606 0.24619
vn -0.4271 0 -0.9042
vn -0.1409 0.95161 0.2731
vn 0.36208 0 0.93215
vn -0.1389 0.96599 0.2181
vn -0.1684 0.95499 0.2442
vn -0.161 0.97811 0.1318
vn -0.2001 0.97619 0.0838
vn 0.65002 0 0.75992
vn -0.227 0.97231 0.0556
vn -0.65233 0 -0.75793
vn -0.36208 0 -0.93215
vn -0.047 0.99426 0.0961
vn 0.4271 0 0.9042
vn -0.0192 0.99314 0.11531
vn 0.0118 0.98869 0.1495
vn -0.94481 0 0.32761
vn -0.9437 0 0.3308
vn -0.9437 0 -0.3308
vn -0.94481 0 -0.32761
vn 0.9437 0 0.3308
vn 0.94384 0 0.33041
vn -0.065 0.972 0.2258
vn -0.0677 0.96062 -0.2695
vn 0.4288 0.87829 0.2115
vn -0.121 0.9779 0.1705
vn 0.16599 0.95205 -0.25699
vn 0.1562 0.7756 0.6116
vn -0.0265 0.99795 0.0582
vn -0.0491 0.779 0.6251
vn -0.0605 0.97152 0.2291
vn 0.2201 0.84452 0.48821
vn -0.1525 0.96973 0.19071
vn -0.1116 0.98003 0.1646
vn -0.1296 0.97379 0.1869
vn -0.1043 0.98217 0.1564
vn 0.133 0.96408 0.2299
vn 0.99823 0 0.0594
vn 0.9437 0 -0.3308
vn 0.94384 0 -0.33041
vn 0.99823 0 -0.0594
vn 0.94481 0 0.32761
vn 0.94481 0 -0.32761
vn -0.0115 0.99343 0.1139
vn 0.0195 0.98986 0.14069
vn 0.1066 0.97822 0.1781
vn 0.1383 0.97003 0.19981
vn 0.94375 -0.0798 0.32088
vn -0.0558 0.98158 0.1827
vn -0.0952 0.94507 -0.31269
vn -0.0868 0.7964 0.5985
vn -0.38442 0.90714 0.17121
vn -0.33689 0.75078 0.56818
vn -0.37871 0.86202 -0.33691
vn -0.2493 0.8384 0.4847
vn -0.283 0.94411 -0.169
vn 0.932 -0.0927 -0.3504
vt 0.375 0.5
vt 0.625 0.5
vt 0.625 0.75
vt 0.375 0.75
vt 0.63674 0.5
vt 0.75 0.5
vt 0.75 0.75
vt 0.63674 0.75
vt 0.375 0.76174
vt 0.625 0.76174
vt 0.625 0.875
vt 0.375 0.875
vt 0.375 0.48826
vt 0.625 0.48826
vt 0.375 0.375
vt 0.625 0.375
vt 0 0
f 1/1/1 2/2/1 3/3/1
f 1/1/1 3/3/1 4/4/1
f 5/5/2 6/6/2 7/7/2
f 5/5/2 7/7/2 8/8/2
f 9/9/3 10/10/3 11/11/3
f 9/9/3 11/11/3 12/12/3
f 4/4/3 3/3/3 10/10/3
f 4/4/3 10/10/3 9/9/3
f 5/5/4 8/8/4 13/8/4
f 5/5/4 13/8/4 14/5/4
f 15/2/2 14/5/2 13/8/2
f 15/2/2 13/8/2 16/3/2
f 10/10/3 3/3/3 16/3/3
f 10/10/3 16/3/3 17/10/3
f 3/3/1 2/2/1 15/2/1
f 3/3/1 15/2/1 16/3/1
f 18/1/4 19/4/4 20/3/4
f 18/1/4 20/3/4 21/2/4
f 22/5/2 23/8/2 7/7/2
f 22/5/2 7/7/2 6/6/2
f 24/9/3 12/12/3 11/11/3
f 24/9/3 11/11/3 25/10/3
f 19/4/3 24/9/3 25/10/3
f 19/4/3 25/10/3 20/3/3
f 22/5/5 26/5/5 27/8/5
f 22/5/5 27/8/5 23/8/5
f 25/10/3 28/10/3 29/3/3
f 25/10/3 29/3/3 20/3/3
f 20/3/4 29/3/4 30/2/4
f 20/3/4 30/2/4 21/2/4
f 31/5/6 32/6/6 33/7/6
f 31/5/6 33/7/6 34/8/6
f 35/1/3 36/4/3 37/3/3
f 35/1/3 37/3/3 38/2/3
f 39/5/7 40/8/7 33/7/7
f 39/5/7 33/7/7 32/6/7
f 39/5/8 41/5/8 42/8/8
f 39/5/8 42/8/8 40/8/8
f 43/2/9 44/3/9 42/8/9
f 43/2/9 42/8/9 41/5/9
f 37/3/3 44/3/3 43/2/3
f 37/3/3 43/2/3 38/2/3
f 45/1/1 46/2/1 47/3/1
f 45/1/1 47/3/1 48/4/1
f 49/5/10 50/6/10 51/7/10
f 49/5/10 51/7/10 52/8/10
f 49/5/4 52/8/4 53/8/4
f 49/5/4 53/8/4 54/5/4
f 55/2/11 54/5/11 53/8/11
f 55/2/11 53/8/11 56/3/11
f 47/3/1 46/2/1 55/2/1
f 47/3/1 55/2/1 56/3/1
f 57/5/12 58/8/12 51/7/12
f 57/5/12 51/7/12 50/6/12
f 59/5/13 60/6/13 61/7/13
f 59/5/13 61/7/13 62/8/13
f 63/5/14 64/8/14 61/7/14
f 63/5/14 61/7/14 60/6/14
f 65/5/15 66/6/15 67/7/15
f 65/5/15 67/7/15 68/8/15
f 50/6/16 49/5/16 62/8/16
f 50/6/16 62/8/16 61/7/16
f 50/6/17 61/7/17 64/8/17
f 50/6/17 64/8/17 57/5/17
f 69/1/4 70/4/4 71/3/4
f 69/1/4 71/3/4 72/2/4
f 73/5/18 74/8/18 67/7/18
f 73/5/18 67/7/18 66/6/18
f 73/5/19 75/5/19 74/8/19
f 75/5/19 76/8/19 74/8/19
f 36/4/20 48/4/20 47/3/20
f 36/4/20 47/3/20 37/3/20
f 44/3/20 37/3/20 47/3/20
f 44/3/20 47/3/20 56/3/20
f 71/3/4 77/3/4 78/2/4
f 71/3/4 78/2/4 72/2/4
f 42/8/21 44/3/21 56/3/21
f 42/8/21 56/3/21 53/8/21
f 79/1/8 80/2/8 81/3/8
f 79/1/8 81/3/8 82/4/8
f 83/5/22 84/6/22 85/7/22
f 83/5/22 85/7/22 86/8/22
f 42/8/23 53/8/23 52/8/23
f 42/8/23 52/8/23 40/8/23
f 33/7/24 40/8/24 52/8/24
f 33/7/24 52/8/24 51/7/24
f 83/5/3 86/8/3 87/8/3
f 83/5/3 87/8/3 88/5/3
f 33/7/25 51/7/25 58/8/25
f 33/7/25 58/8/25 34/8/25
f 89/2/26 88/5/26 87/8/26
f 89/2/26 87/8/26 90/3/26
f 81/3/8 80/2/8 89/2/8
f 81/3/8 89/2/8 90/3/8
f 91/5/27 92/8/27 85/7/27
f 91/5/27 85/7/27 84/6/27
f 93/13/8 94/14/8 95/2/8
f 93/13/8 95/2/8 96/1/8
f 96/1/1 95/2/1 97/3/1
f 96/1/1 97/3/1 98/4/1
f 99/5/28 100/6/28 101/7/28
f 99/5/28 101/7/28 102/8/28
f 22/5/29 6/6/29 32/6/29
f 22/5/29 32/6/29 31/5/29
f 5/5/30 39/5/30 32/6/30
f 5/5/30 32/6/30 6/6/30
f 99/5/4 102/8/4 103/8/4
f 99/5/4 103/8/4 104/5/4
f 105/15/8 106/16/8 94/14/8
f 105/15/8 94/14/8 93/13/8
f 107/2/28 104/5/28 103/8/28
f 107/2/28 103/8/28 108/3/28
f 5/5/31 14/5/31 41/5/31
f 5/5/31 41/5/31 39/5/31
f 95/2/8 94/14/8 109/14/8
f 95/2/8 109/14/8 107/2/8
f 97/3/1 95/2/1 107/2/1
f 97/3/1 107/2/1 108/3/1
f 110/13/8 111/1/8 112/2/8
f 110/13/8 112/2/8 113/14/8
f 111/1/4 114/4/4 115/3/4
f 111/1/4 115/3/4 112/2/4
f 116/5/28 117/8/28 101/7/28
f 116/5/28 101/7/28 100/6/28
f 15/2/32 43/2/32 41/5/32
f 15/2/32 41/5/32 14/5/32
f 2/2/33 38/2/33 43/2/33
f 2/2/33 43/2/33 15/2/33
f 116/5/1 118/5/1 119/8/1
f 116/5/1 119/8/1 117/8/1
f 105/15/8 110/13/8 113/14/8
f 105/15/8 113/14/8 106/16/8
f 120/2/28 121/3/28 119/8/28
f 120/2/28 119/8/28 118/5/28
f 1/1/33 35/1/33 38/2/33
f 1/1/33 38/2/33 2/2/33
f 112/2/8 120/2/8 122/14/8
f 112/2/8 122/14/8 113/14/8
f 115/3/4 121/3/4 120/2/4
f 115/3/4 120/2/4 112/2/4
f 60/6/34 59/5/34 68/8/34
f 60/6/34 68/8/34 67/7/34
f 60/6/35 67/7/35 74/8/35
f 60/6/35 74/8/35 63/5/35
f 65/5/36 91/5/36 84/6/36
f 65/5/36 84/6/36 66/6/36
f 73/5/37 66/6/37 84/6/37
f 73/5/37 84/6/37 83/5/37
f 73/5/38 83/5/38 88/5/38
f 73/5/38 88/5/38 75/5/38
f 78/2/39 75/5/39 88/5/39
f 78/2/39 88/5/39 89/2/39
f 72/2/40 78/2/40 89/2/40
f 72/2/40 89/2/40 80/2/40
f 69/1/40 72/2/40 80/2/40
f 69/1/40 80/2/40 79/1/40
f 82/4/41 81/3/41 115/3/41
f 82/4/41 115/3/41 114/4/41
f 90/3/41 121/3/41 115/3/41
f 90/3/41 115/3/41 81/3/41
f 87/8/42 119/8/42 121/3/42
f 87/8/42 121/3/42 90/3/42
f 87/8/43 86/8/43 117/8/43
f 87/8/43 117/8/43 119/8/43
f 85/7/44 101/7/44 117/8/44
f 85/7/44 117/8/44 86/8/44
f 85/7/45 92/8/45 102/8/45
f 85/7/45 102/8/45 101/7/45
f 77/3/46 71/3/46 123/17/46
f 77/3/46 123/17/46 124/17/46
f 123/17/47 125/17/47 126/17/47
f 123/17/47 126/17/47 124/17/47
f 125/17/48 127/17/48 128/17/48
f 125/17/48 128/17/48 126/17/48
f 30/2/49 128/17/49 127/17/49
f 30/2/49 127/17/49 21/2/49
f 129/17/50 130/17/50 131/17/50
f 129/17/50 131/17/50 132/17/50
f 133/17/51 26/5/51 130/17/51
f 133/17/51 130/17/51 129/17/51
f 70/4/46 134/17/46 123/17/46
f 70/4/46 123/17/46 71/3/46
f 123/17/47 134/17/47 135/17/47
f 123/17/47 135/17/47 125/17/47
f 125/17/48 135/17/48 136/17/48
f 125/17/48 136/17/48 127/17/48
f 18/1/49 21/2/49 127/17/49
f 18/1/49 127/17/49 136/17/49
f 137/8/52 138/5/52 139/5/52
f 137/8/52 139/5/52 140/8/52
f 64/8/53 63/5/53 138/5/53
f 64/8/53 138/5/53 137/8/53
f 58/8/54 57/5/54 141/5/54
f 58/8/54 141/5/54 142/8/54
f 26/5/55 139/5/55 138/5/55
f 138/5/55 76/8/55 143/17/55
f 131/17/55 130/17/55 26/5/55
f 138/5/55 143/17/55 131/17/55
f 138/5/55 131/17/55 26/5/55
f 57/5/56 64/8/56 137/8/56
f 57/5/56 137/8/56 141/5/56
f 34/8/57 58/8/57 142/8/57
f 34/8/57 142/8/57 140/8/57
f 63/5/58 74/8/58 76/8/58
f 63/5/58 76/8/58 138/5/58
f 31/5/59 34/8/59 140/8/59
f 31/5/59 140/8/59 139/5/59
f 140/8/60 142/8/60 141/5/60
f 140/8/60 141/5/60 137/8/60
f 22/5/61 31/5/61 139/5/61
f 22/5/61 139/5/61 26/5/61
f 75/5/62 78/2/62 77/3/62
f 75/5/62 77/3/62 144/17/62
f 77/3/63 124/17/63 145/17/63
f 77/3/63 145/17/63 144/17/63
f 124/17/64 126/17/64 132/17/64
f 124/17/64 132/17/64 145/17/64
f 126/17/65 128/17/65 129/17/65
f 126/17/65 129/17/65 132/17/65
f 128/17/66 30/2/66 133/17/66
f 128/17/66 133/17/66 129/17/66
f 30/2/2 29/3/2 28/10/2
f 30/2/2 28/10/2 133/17/2
f 133/17/67 28/10/67 26/5/67
f 143/17/68 145/17/68 132/17/68
f 143/17/68 132/17/68 131/17/68
f 76/8/69 144/17/69 145/17/69
f 76/8/69 145/17/69 143/17/69
f 76/8/70 75/5/70 144/17/70
f 98/4/71 97/3/71 146/17/71
f 98/4/71 146/17/71 147/17/71
f 146/17/50 148/17/50 149/17/50
f 146/17/50 149/17/50 147/17/50
f 148/17/68 150/17/68 151/17/68
f 148/17/68 151/17/68 149/17/68
f 45/1/72 151/17/72 150/17/72
f 45/1/72 150/17/72 46/2/72
f 46/2/72 150/17/72 152/17/72
f 46/2/72 152/17/72 55/2/72
f 153/17/68 152/17/68 150/17/68
f 153/17/68 150/17/68 148/17/68
f 154/17/50 153/17/50 148/17/50
f 154/17/50 148/17/50 146/17/50
f 97/3/71 108/3/71 154/17/71
f 97/3/71 154/17/71 146/17/71
f 108/3/73 103/8/73 155/17/73
f 108/3/73 155/17/73 154/17/73
f 155/17/74 156/17/74 153/17/74
f 155/17/74 153/17/74 154/17/74
f 156/17/75 157/17/75 152/17/75
f 156/17/75 152/17/75 153/17/75
f 55/2/76 152/17/76 157/17/76
f 55/2/76 157/17/76 54/5/76
f 49/5/46 54/5/46 157/17/46
f 49/5/46 157/17/46 158/17/46
f 156/17/47 159/17/47 158/17/47
f 156/17/47 158/17/47 157/17/47
f 155/17/48 160/17/48 159/17/48
f 155/17/48 159/17/48 156/17/48
f 102/8/49 160/17/49 155/17/49
f 102/8/49 155/17/49 103/8/49
f 160/17/77 102/8/77 161/8/77
f 162/8/78 163/5/78 158/17/78
f 159/17/78 160/17/78 161/8/78
f 162/8/78 158/17/78 159/17/78
f 164/8/78 165/5/78 162/8/78
f 166/5/78 167/5/78 164/8/78
f 159/17/78 161/8/78 168/8/78
f 168/8/78 166/5/78 164/8/78
f 164/8/78 162/8/78 159/17/78
f 159/17/78 168/8/78 164/8/78
f 92/8/79 91/5/79 166/5/79
f 92/8/79 166/5/79 168/8/79
f 59/5/80 62/8/80 162/8/80
f 59/5/80 162/8/80 165/5/80
f 65/5/81 68/8/81 164/8/81
f 65/5/81 164/8/81 167/5/81
f 62/8/82 49/5/82 163/5/82
f 62/8/82 163/5/82 162/8/82
f 102/8/83 92/8/83 168/8/83
f 102/8/83 168/8/83 161/8/83
f 68/8/84 59/5/84 165/5/84
f 68/8/84 165/5/84 164/8/84
f 91/5/85 65/5/85 167/5/85
f 91/5/85 167/5/85 166/5/85
f 49/5/86 158/17/86 163/5/86
# Vertices: 168, normals: 86, texture coordinates: 17, faces: 286

