# File generated by ImageToStl.com - Free Image and 3D model conversion tools

o obj1
v 1 -0.29299939 -0.40975177
v 1 0.16551614 -0.40975177
v 1 0.16551614 0.40975177
v 1 -0.29299939 0.40975177
v 0.90606058 0.16551614 -0.40975177
v 0 0.16551614 -0.40975177
v 0 0.16551614 0.40975177
v 0.90606058 0.16551614 0.40975177
v 0.90606058 -0.29299939 0.40975177
v 0.90606058 0.16551614 0.40975177
v 0 0.16551614 0.40975177
v 0 -0.29299939 0.40975177
v 0.90606058 0.37146229 0.40975177
v 0.90606058 0.37146199 -0.40975201
v 1 0.37146229 0.40975177
v 0.90606058 0.37146229 0.40975177
v -1 -0.29299939 -0.40975177
v -1 -0.29299939 0.40975177
v -1 0.16551614 0.40975177
v -1 0.16551614 -0.40975177
v -0.9060607 0.16551614 -0.40975177
v -0.9060607 0.16551614 0.40975177
v -0.9060607 -0.29299939 0.40975177
v -0.9060607 0.16551614 0.40975177
v -0.9060607 0.37146229 -0.40975177
v -0.9060607 0.37146229 0.40975177
v -1 0.37146229 -0.40975177
v -1 0.37146229 0.40975177
v -0.9060607 0.37146229 0.40975177
v 1.58263147 -0.29299939 -1.99684501
v 1.58263147 0.16551614 -1.99684501
v 1.00315499 0.16551614 -1.41736853
v 1.00315499 -0.29299939 -1.41736853
v 1.51620626 0.16551614 -2.06327009
v 0.87552476 0.16551614 -2.70395184
v 0.29604816 0.16551614 -2.12447524
v 0.93672979 0.16551614 -1.48379374
v 1.59024823 0.21075849 -2
v 1.00315499 0.21075849 -1.41736853
v 0.16841793 -0.29299939 -3.41105843
v -0.41105843 -0.29299939 -2.83158207
v -0.41105843 0.16551614 -2.83158207
v 0.16841793 0.16551614 -3.41105843
v 0.23484302 0.16551614 -3.34463334
v -0.34463334 0.16551614 -2.76515698
v 0.23484302 0.37146229 -3.34463334
v -0.34463334 0.37146229 -2.76515698
v 0.16841793 0.37146229 -3.41105843
v -0.41105843 0.37146229 -2.83158207
v 2.40975165 0.16551614 -3
v 2.40975165 0.16551614 -2.0939393
v 2.48379374 0.16551614 -2.06327009
v 3.12447524 0.16551614 -2.7039516
v 2.40975165 -0.29299939 -2
v 2.41736841 0.16551614 -1.99684501
v 1.58263147 0.16551614 -1.99684501
v 1.58263147 -0.29299939 -1.99684501
v 1.59024823 0.16551614 -3
v 1.59024823 0.16551614 -2.0939393
v 3.76515675 0.16551614 -3.3446331
v 2.40975165 0.16551614 -3.90606046
v 2.40975165 0.21075849 -2
v 1.59024823 0.21075849 -2
v 3.76515675 0.37146229 -3.3446331
v 2.40975165 0.37146229 -3.90606046
v 3.83158207 0.37146229 -3.41105843
v 2.40975165 0.37146229 -3.99999976
v 2.40975165 -0.29299939 -3.99999976
v 1.59024823 -0.29299939 -3.99999976
v 1.59024823 0.16551614 -3.99999976
v 2.40975165 0.16551614 -3.99999976
v 1.59024823 0.16551614 -3.90606046
v 1.59024823 0.37146229 -3.90606046
v 3.83158207 0.16551614 -3.41105843
v 1.59024823 0.37146229 -3.99999976
v 3.83158207 -0.29299939 -3.41105843
v 2.99684501 -0.29299939 -1.41736841
v 2.99684501 0.16551614 -1.41736841
v 2.41736841 0.16551614 -1.99684501
v 2.40975165 -0.29299939 -2
v 3.06327009 0.16551614 -1.48379374
v 3.7039516 0.16551614 -2.12447524
v 2.99684501 0.21075849 -1.41736841
v 2.40975165 0.21075849 -2
v 4.41105843 -0.29299939 -2.83158207
v 4.41105843 0.16551614 -2.83158207
v 4.3446331 0.16551614 -2.76515675
v 4.3446331 0.37146229 -2.76515675
v 4.41105843 0.37146229 -2.83158207
v 3.0939393 -0.29299939 0.40975171
v 3.0939393 0.16551614 0.40975171
v 3 0.16551614 0.40975171
v 3 -0.29299939 0.40975171
v 3 0.16551614 -0.40975171
v 3 -0.29299939 -0.40975171
v 3.0939393 0.16551614 0.40975171
v 3.99999976 0.16551614 0.40975171
v 3.99999976 0.16551614 -0.40975171
v 3.0939393 0.16551614 -0.40975171
v 3.0939393 0.37146229 -0.40975171
v 3.0939393 0.37146229 0.40975171
v 3.99999976 -0.29299939 0.40975171
v 3.99999976 0.16551614 0.40975171
v 3.0939393 0.37146229 0.40975171
v 3 0.37146229 0.40975171
v 4.90606022 -0.29299939 0.40975171
v 4.99999952 -0.29299939 0.40975171
v 4.99999952 0.16551614 0.40975171
v 4.90606022 0.16551614 0.40975171
v 4.99999952 -0.29299939 -0.40975171
v 4.99999952 0.16551614 -0.40975171
v 4.90606022 0.16551614 0.40975171
v 4.90606022 0.16551614 -0.40975171
v 4.90606022 0.37146229 0.40975171
v 4.90606022 0.37146229 -0.40975171
v 4.99999952 0.37146229 0.40975171
v 4.99999952 0.37146229 -0.40975171
v 4.90606022 0.37146229 0.40975171
v 1 0.21075849 -0.40975177
v 0.90606058 0.16551614 -0.40975177
v 1 0.21075849 -0.40975177
v 1.00315499 0.21075849 -1.41736853
v 0.93672979 0.16551614 -1.48379374
v 3.06327009 0.16551614 -1.48379374
v 2.99684501 0.21075849 -1.41736841
v 3 0.21075849 -0.40975171
v 3.0939393 0.16551614 -0.40975171
v 3 0.21075849 -0.40975171
v 2.40975165 0.21075849 -2
v 1.59024823 0.21075849 -2
v 1 0.37146199 -0.40975201
v 3 0.37146229 -0.40975201
vn 1 0 0
vn 0 1 0
vn 0 0 1
vn -1 0 0
vn 0.70711 0 0.70711
vn -0.30211 0.90373 -0.30331
vn 0.70533 -0.0347 0.70803
vn -0.70711 0 -0.70711
vn 0.0019 -0.0035 0.99999
vn 0 0.90097 -0.43388
vn -0.38269 0 0.92388
vn 0 0.0696 0.99758
vn 0 0 -1
vn 0.38269 0 -0.92388
vn -0.7057 0.0034 0.7085
vn -0.1769 0.88672 -0.42711
vn 0.30211 0.90373 -0.30331
vn -0.70533 -0.0347 0.70803
vn 0.70711 0 -0.70711
vn -0.70711 0 0.70711
vn 0.38269 0 0.92388
vn -0.38269 0 -0.92388
vn 1 0 0.0031
vn 0.97274 0 0.23191
vn -0.97168 0 -0.2363
vn 0.1769 0.88672 -0.42711
vn 0.97168 0 -0.2363
vn -0.97274 0 0.23191
vn -0.4889 0.8723 -0.0079
vn 0.4889 0.8723 -0.0079
vn -1 0 0.0031
vt 0.375 0.5
vt 0.625 0.5
vt 0.625 0.75
vt 0.375 0.75
vt 0.63674 0.5
vt 0.75 0.5
vt 0.75 0.75
vt 0.63674 0.75
vt 0.375 0.76174
vt 0.625 0.76174
vt 0.625 0.875
vt 0.375 0.875
vt 0.375 0.48826
vt 0.625 0.48826
vt 0.375 0.375
vt 0.625 0.375
vt 0 0
f 1/1/1 2/2/1 3/3/1
f 1/1/1 3/3/1 4/4/1
f 5/5/2 6/6/2 7/7/2
f 5/5/2 7/7/2 8/8/2
f 9/9/3 10/10/3 11/11/3
f 9/9/3 11/11/3 12/12/3
f 4/4/3 3/3/3 10/10/3
f 4/4/3 10/10/3 9/9/3
f 5/5/4 8/8/4 13/8/4
f 5/5/4 13/8/4 14/5/4
f 10/10/3 3/3/3 15/3/3
f 10/10/3 15/3/3 16/10/3
f 17/1/4 18/4/4 19/3/4
f 17/1/4 19/3/4 20/2/4
f 21/5/2 22/8/2 7/7/2
f 21/5/2 7/7/2 6/6/2
f 23/9/3 12/12/3 11/11/3
f 23/9/3 11/11/3 24/10/3
f 18/4/3 23/9/3 24/10/3
f 18/4/3 24/10/3 19/3/3
f 21/5/1 25/5/1 26/8/1
f 21/5/1 26/8/1 22/8/1
f 27/2/2 28/3/2 26/8/2
f 27/2/2 26/8/2 25/5/2
f 24/10/3 29/10/3 28/3/3
f 24/10/3 28/3/3 19/3/3
f 19/3/4 28/3/4 27/2/4
f 19/3/4 27/2/4 20/2/4
f 30/1/5 31/2/5 32/3/5
f 30/1/5 32/3/5 33/4/5
f 34/5/2 35/6/2 36/7/2
f 34/5/2 36/7/2 37/8/2
f 38/2/6 34/5/6 37/8/6
f 38/2/6 37/8/6 39/3/6
f 32/3/7 31/2/7 38/2/7
f 32/3/7 38/2/7 39/3/7
f 40/1/8 41/4/8 42/3/8
f 40/1/8 42/3/8 43/2/8
f 44/5/2 45/8/2 36/7/2
f 44/5/2 36/7/2 35/6/2
f 44/5/5 46/5/5 47/8/5
f 44/5/5 47/8/5 45/8/5
f 48/2/2 49/3/2 47/8/2
f 48/2/2 47/8/2 46/5/2
f 42/3/8 49/3/8 48/2/8
f 42/3/8 48/2/8 43/2/8
f 50/6/2 51/5/2 52/8/2
f 50/6/2 52/8/2 53/7/2
f 54/1/9 55/2/9 56/3/9
f 54/1/9 56/3/9 57/4/9
f 51/5/2 50/6/2 58/7/2
f 51/5/2 58/7/2 59/8/2
f 53/7/2 60/8/2 61/5/2
f 53/7/2 61/5/2 50/6/2
f 62/2/10 51/5/10 59/8/10
f 62/2/10 59/8/10 63/3/10
f 60/8/11 64/8/11 65/5/11
f 60/8/11 65/5/11 61/5/11
f 56/3/12 55/2/12 62/2/12
f 56/3/12 62/2/12 63/3/12
f 64/8/2 66/3/2 67/2/2
f 64/8/2 67/2/2 65/5/2
f 68/1/13 69/4/13 70/3/13
f 68/1/13 70/3/13 71/2/13
f 61/5/2 72/8/2 58/7/2
f 61/5/2 58/7/2 50/6/2
f 61/5/3 65/5/3 73/8/3
f 61/5/3 73/8/3 72/8/3
f 66/3/14 74/3/14 71/2/14
f 66/3/14 71/2/14 67/2/14
f 67/2/2 75/3/2 73/8/2
f 67/2/2 73/8/2 65/5/2
f 68/1/14 71/2/14 74/3/14
f 68/1/14 74/3/14 76/4/14
f 70/3/13 75/3/13 67/2/13
f 70/3/13 67/2/13 71/2/13
f 77/1/15 78/2/15 79/3/15
f 77/1/15 79/3/15 80/4/15
f 38/2/16 59/8/16 34/5/16
f 81/5/2 82/6/2 53/7/2
f 81/5/2 53/7/2 52/8/2
f 83/2/17 81/5/17 52/8/17
f 83/2/17 52/8/17 84/3/17
f 79/3/18 78/2/18 83/2/18
f 79/3/18 83/2/18 84/3/18
f 85/1/19 76/4/19 74/3/19
f 85/1/19 74/3/19 86/2/19
f 35/6/2 34/5/2 59/8/2
f 35/6/2 59/8/2 58/7/2
f 87/5/2 60/8/2 53/7/2
f 87/5/2 53/7/2 82/6/2
f 87/5/20 88/5/20 64/8/20
f 87/5/20 64/8/20 60/8/20
f 35/6/2 58/7/2 72/8/2
f 35/6/2 72/8/2 44/5/2
f 89/2/2 66/3/2 64/8/2
f 89/2/2 64/8/2 88/5/2
f 74/3/19 66/3/19 89/2/19
f 74/3/19 89/2/19 86/2/19
f 90/13/3 91/14/3 92/2/3
f 90/13/3 92/2/3 93/1/3
f 93/1/4 92/2/4 94/3/4
f 93/1/4 94/3/4 95/4/4
f 46/5/21 44/5/21 72/8/21
f 46/5/21 72/8/21 73/8/21
f 96/5/2 97/6/2 98/7/2
f 96/5/2 98/7/2 99/8/2
f 96/5/1 99/8/1 100/8/1
f 96/5/1 100/8/1 101/5/1
f 46/5/2 73/8/2 75/3/2
f 46/5/2 75/3/2 48/2/2
f 102/15/3 103/16/3 91/14/3
f 102/15/3 91/14/3 90/13/3
f 92/2/3 91/14/3 104/14/3
f 92/2/3 104/14/3 105/2/3
f 106/13/3 107/1/3 108/2/3
f 106/13/3 108/2/3 109/14/3
f 107/1/1 110/4/1 111/3/1
f 107/1/1 111/3/1 108/2/1
f 48/2/22 75/3/22 70/3/22
f 48/2/22 70/3/22 43/2/22
f 112/5/2 113/8/2 98/7/2
f 112/5/2 98/7/2 97/6/2
f 112/5/4 114/5/4 115/8/4
f 112/5/4 115/8/4 113/8/4
f 40/1/22 43/2/22 70/3/22
f 40/1/22 70/3/22 69/4/22
f 102/15/3 106/13/3 109/14/3
f 102/15/3 109/14/3 103/16/3
f 116/2/2 117/3/2 115/8/2
f 116/2/2 115/8/2 114/5/2
f 108/2/3 116/2/3 118/14/3
f 108/2/3 118/14/3 109/14/3
f 111/3/1 117/3/1 116/2/1
f 111/3/1 116/2/1 108/2/1
f 1/1/23 33/4/23 32/3/23
f 1/1/23 32/3/23 2/2/23
f 119/2/23 2/2/23 32/3/23
f 119/2/23 32/3/23 39/3/23
f 6/6/2 5/5/2 37/8/2
f 6/6/2 37/8/2 36/7/2
f 6/6/2 36/7/2 45/8/2
f 6/6/2 45/8/2 21/5/2
f 25/5/24 21/5/24 45/8/24
f 25/5/24 45/8/24 47/8/24
f 25/5/2 47/8/2 49/3/2
f 25/5/2 49/3/2 27/2/2
f 27/2/25 49/3/25 42/3/25
f 27/2/25 42/3/25 20/2/25
f 17/1/25 20/2/25 42/3/25
f 17/1/25 42/3/25 41/4/25
f 52/8/26 51/5/26 84/3/26
f 111/3/27 110/4/27 85/1/27
f 111/3/27 85/1/27 86/2/27
f 111/3/27 86/2/27 89/2/27
f 111/3/27 89/2/27 117/3/27
f 88/5/2 115/8/2 117/3/2
f 88/5/2 117/3/2 89/2/2
f 88/5/28 87/5/28 113/8/28
f 88/5/28 113/8/28 115/8/28
f 82/6/2 98/7/2 113/8/2
f 82/6/2 113/8/2 87/5/2
f 82/6/2 81/5/2 99/8/2
f 82/6/2 99/8/2 98/7/2
f 120/17/29 121/17/29 122/17/29
f 120/17/29 122/17/29 123/17/29
f 124/17/30 125/17/30 126/17/30
f 124/17/30 126/17/30 127/17/30
f 83/2/31 78/2/31 94/3/31
f 83/2/31 94/3/31 128/3/31
f 77/1/31 95/4/31 94/3/31
f 77/1/31 94/3/31 78/2/31
f 125/17/2 129/17/2 130/17/2
f 130/17/2 122/17/2 121/17/2
f 121/17/2 126/17/2 125/17/2
f 130/17/2 121/17/2 125/17/2
f 131/17/2 14/5/2 13/8/2
f 131/17/2 13/8/2 15/3/2
f 105/2/2 104/14/2 100/8/2
f 105/2/2 100/8/2 132/17/2
f 2/2/1 119/2/1 3/3/1
f 15/3/1 3/3/1 119/2/1
f 15/3/1 119/2/1 131/17/1
f 94/3/4 92/2/4 128/3/4
f 105/2/4 132/17/4 128/3/4
f 105/2/4 128/3/4 92/2/4
f 100/8/13 127/17/13 128/3/13
f 100/8/13 128/3/13 132/17/13
f 14/5/13 131/17/13 119/2/13
f 14/5/13 119/2/13 120/17/13
f 121/17/13 131/17/13 132/17/13
f 121/17/13 132/17/13 126/17/13
# Vertices: 132, normals: 31, texture coordinates: 17, faces: 192

