{"asset":{"version":"2.0","generator":"Blockbench 5.1.3 glTF exporter"},"scenes":[{"nodes":[0],"name":"blockbench_export"}],"scene":0,"nodes":[{"name":"regular_2.001","mesh":0}],"bufferViews":[{"buffer":0,"byteOffset":0,"byteLength":3264,"target":34962,"byteStride":12},{"buffer":0,"byteOffset":3264,"byteLength":3264,"target":34962,"byteStride":12},{"buffer":0,"byteOffset":6528,"byteLength":2176,"target":34962,"byteStride":8},{"buffer":0,"byteOffset":8704,"byteLength":648,"target":34963}],"buffers":[{"byteLength":9352,"uri":"data:application/octet-stream;base64,"}],"accessors":[{"bufferView":0,"componentType":5126,"count":272,"max":[20,24.33319091796875,40.842018127441406],"min":[-83.99998474121094,-0.4999980032444,-64],"type":"VEC3"},{"bufferView":1,"componentType":5126,"count":272,"max":[0.2418668419122696,0.9948962330818176,-0.10089779645204544],"min":[-0.24184080958366394,0.8269509077072144,-0.5622738003730774],"type":"VEC3"},{"bufferView":2,"componentType":5126,"count":272,"max":[0.984375,0.359375],"min":[0.015625,0.015625],"type":"VEC2"},{"bufferView":3,"componentType":5123,"count":324,"max":[271],"min":[0],"type":"SCALAR"}],"materials":[{"pbrMetallicRoughness":{"metallicFactor":0,"roughnessFactor":1,"baseColorTexture":{"index":0}},"alphaMode":"MASK","alphaCutoff":0.05,"doubleSided":true}],"textures":[{"sampler":0,"source":0,"name":"texture"}],"samplers":[{"magFilter":9728,"minFilter":9728,"wrapS":33071,"wrapT":33071}],"images":[{"mimeType":"image/png","uri":"data:image/png;base64,"}],"meshes":[{"primitives":[{"mode":4,"attributes":{"POSITION":0,"NORMAL":1,"TEXCOORD_0":2},"indices":3,"material":0}]}]}