{"asset":{"version":"2.0","generator":"Blockbench 5.1.3 glTF exporter"},"scenes":[{"nodes":[0],"name":"blockbench_export"}],"scene":0,"nodes":[{"name":"regular_centro","mesh":0}],"bufferViews":[{"buffer":0,"byteOffset":0,"byteLength":8448,"target":34962,"byteStride":12},{"buffer":0,"byteOffset":8448,"byteLength":8448,"target":34962,"byteStride":12},{"buffer":0,"byteOffset":16896,"byteLength":5632,"target":34962,"byteStride":8},{"buffer":0,"byteOffset":22528,"byteLength":2112,"target":34963}],"buffers":[{"byteLength":24640,"uri":"data:application/octet-stream;base64,"}],"accessors":[{"bufferView":0,"componentType":5126,"count":704,"max":[144.9131317138672,67.20947265625,0.000001249999968422344],"min":[-208.9131317138672,-0.5,-64],"type":"VEC3"},{"bufferView":1,"componentType":5126,"count":704,"max":[1,1,1],"min":[-1,-1,-1],"type":"VEC3"},{"bufferView":2,"componentType":5126,"count":704,"max":[0.984375,0.671875],"min":[0.015625,0.015625],"type":"VEC2"},{"bufferView":3,"componentType":5123,"count":1056,"max":[703],"min":[0],"type":"SCALAR"}],"materials":[{"pbrMetallicRoughness":{"metallicFactor":0,"roughnessFactor":1,"baseColorTexture":{"index":0}},"alphaMode":"MASK","alphaCutoff":0.05,"doubleSided":true}],"textures":[{"sampler":0,"source":0,"name":"aaaaaaaaaa.png"}],"samplers":[{"magFilter":9728,"minFilter":9728,"wrapS":33071,"wrapT":33071}],"images":[{"mimeType":"image/png","uri":"data:image/png;base64,"}],"meshes":[{"primitives":[{"mode":4,"attributes":{"POSITION":0,"NORMAL":1,"TEXCOORD_0":2},"indices":3,"material":0}]}]}