{"asset":{"version":"2.0","generator":"Blockbench 5.1.3 glTF exporter"},"scenes":[{"nodes":[0],"name":"blockbench_export"}],"scene":0,"nodes":[{"name":"regular_3","mesh":0}],"bufferViews":[{"buffer":0,"byteOffset":0,"byteLength":28968,"target":34962,"byteStride":12},{"buffer":0,"byteOffset":28968,"byteLength":28968,"target":34962,"byteStride":12},{"buffer":0,"byteOffset":57936,"byteLength":19312,"target":34962,"byteStride":8},{"buffer":0,"byteOffset":77248,"byteLength":7212,"target":34963}],"buffers":[{"byteLength":84460,"uri":"data:application/octet-stream;base64,"}],"accessors":[{"bufferView":0,"componentType":5126,"count":2414,"max":[156.28515625,99.28855895996094,240.37728881835938],"min":[-89.12468719482422,-138.25332641601562,-64.53339385986328],"type":"VEC3"},{"bufferView":1,"componentType":5126,"count":2414,"max":[0.9999997019767761,0.9999866485595703,0.9998296499252319],"min":[-0.9999997019767761,-0.9997151494026184,-0.9996951818466187],"type":"VEC3"},{"bufferView":2,"componentType":5126,"count":2414,"max":[0.9921875,0.5859375],"min":[0.0078125,0.0078125],"type":"VEC2"},{"bufferView":3,"componentType":5123,"count":3606,"max":[2413],"min":[0],"type":"SCALAR"}],"materials":[{"pbrMetallicRoughness":{"metallicFactor":0,"roughnessFactor":1,"baseColorTexture":{"index":0}},"alphaMode":"MASK","alphaCutoff":0.05,"doubleSided":true}],"textures":[{"sampler":0,"source":0,"name":"dgdfgh.png"}],"samplers":[{"magFilter":9728,"minFilter":9728,"wrapS":33071,"wrapT":33071}],"images":[{"mimeType":"image/png","uri":"data:image/png;base64,"}],"meshes":[{"primitives":[{"mode":4,"attributes":{"POSITION":0,"NORMAL":1,"TEXCOORD_0":2},"indices":3,"material":0}]}]}