{"asset":{"version":"2.0","generator":"Blockbench 5.1.3 glTF exporter"},"scenes":[{"nodes":[0],"name":"blockbench_export"}],"scene":0,"nodes":[{"name":"regular_2","mesh":0}],"bufferViews":[{"buffer":0,"byteOffset":0,"byteLength":23136,"target":34962,"byteStride":12},{"buffer":0,"byteOffset":23136,"byteLength":23136,"target":34962,"byteStride":12},{"buffer":0,"byteOffset":46272,"byteLength":15424,"target":34962,"byteStride":8},{"buffer":0,"byteOffset":61696,"byteLength":5760,"target":34963}],"buffers":[{"byteLength":67456,"uri":"data:application/octet-stream;base64,"}],"accessors":[{"bufferView":0,"componentType":5126,"count":1928,"max":[144.9131317138672,67.20947265625,156.0089111328125],"min":[-208.9131317138672,-0.5000050067901611,-64],"type":"VEC3"},{"bufferView":1,"componentType":5126,"count":1928,"max":[1,1,1],"min":[-1,-0.9027707576751709,-1],"type":"VEC3"},{"bufferView":2,"componentType":5126,"count":1928,"max":[0.9921875,0.4921875],"min":[0.0078125,0.0078125],"type":"VEC2"},{"bufferView":3,"componentType":5123,"count":2880,"max":[1927],"min":[0],"type":"SCALAR"}],"materials":[{"pbrMetallicRoughness":{"metallicFactor":0,"roughnessFactor":1,"baseColorTexture":{"index":0}},"alphaMode":"MASK","alphaCutoff":0.05,"doubleSided":true}],"textures":[{"sampler":0,"source":0,"name":"11.png"}],"samplers":[{"magFilter":9728,"minFilter":9728,"wrapS":33071,"wrapT":33071}],"images":[{"mimeType":"image/png","uri":"data:image/png;base64,"}],"meshes":[{"primitives":[{"mode":4,"attributes":{"POSITION":0,"NORMAL":1,"TEXCOORD_0":2},"indices":3,"material":0}]}]}