{"asset":{"version":"2.0","generator":"Blockbench 5.1.3 glTF exporter"},"scenes":[{"nodes":[0],"name":"blockbench_export"}],"scene":0,"nodes":[{"name":"regular_1","mesh":0}],"bufferViews":[{"buffer":0,"byteOffset":0,"byteLength":20232,"target":34962,"byteStride":12},{"buffer":0,"byteOffset":20232,"byteLength":20232,"target":34962,"byteStride":12},{"buffer":0,"byteOffset":40464,"byteLength":13488,"target":34962,"byteStride":8},{"buffer":0,"byteOffset":53952,"byteLength":5052,"target":34963}],"buffers":[{"byteLength":59004,"uri":"data:application/octet-stream;base64,"}],"accessors":[{"bufferView":0,"componentType":5126,"count":1686,"max":[144.9131317138672,67.20947265625,301.77716064453125],"min":[-208.9131317138672,-43.009666442871094,-64],"type":"VEC3"},{"bufferView":1,"componentType":5126,"count":1686,"max":[1,1,1],"min":[-1,-0.021094433963298798,-1],"type":"VEC3"},{"bufferView":2,"componentType":5126,"count":1686,"max":[0.9921875,0.4296875],"min":[0.0078125,0.0078125],"type":"VEC2"},{"bufferView":3,"componentType":5123,"count":2526,"max":[1685],"min":[0],"type":"SCALAR"}],"materials":[{"pbrMetallicRoughness":{"metallicFactor":0,"roughnessFactor":1,"baseColorTexture":{"index":0}},"alphaMode":"MASK","alphaCutoff":0.05,"doubleSided":true}],"textures":[{"sampler":0,"source":0,"name":"texture.png"}],"samplers":[{"magFilter":9728,"minFilter":9728,"wrapS":33071,"wrapT":33071}],"images":[{"mimeType":"image/png","uri":"data:image/png;base64,"}],"meshes":[{"primitives":[{"mode":4,"attributes":{"POSITION":0,"NORMAL":1,"TEXCOORD_0":2},"indices":3,"material":0}]}]}