{"asset":{"version":"2.0","generator":"Blockbench 5.1.3 glTF exporter"},"scenes":[{"nodes":[0],"name":"blockbench_export"}],"scene":0,"nodes":[{"name":"regular_1.001","mesh":0}],"bufferViews":[{"buffer":0,"byteOffset":0,"byteLength":13524,"target":34962,"byteStride":12},{"buffer":0,"byteOffset":13524,"byteLength":13524,"target":34962,"byteStride":12},{"buffer":0,"byteOffset":27048,"byteLength":9016,"target":34962,"byteStride":8},{"buffer":0,"byteOffset":36064,"byteLength":2576,"target":34963}],"buffers":[{"byteLength":38640,"uri":"data:application/octet-stream;base64,"}],"accessors":[{"bufferView":0,"componentType":5126,"count":1127,"max":[20.000003814697266,34.566986083984375,180],"min":[-84.00001525878906,-35.43301773071289,-64.00000762939453],"type":"VEC3"},{"bufferView":1,"componentType":5126,"count":1127,"max":[0.686924159526825,1,0.9791190028190613],"min":[-0.871989905834198,0.1939864456653595,-0.7384166121482849],"type":"VEC3"},{"bufferView":2,"componentType":5126,"count":1127,"max":[0.9921875,0.3359375],"min":[0.0078125,0.0078125],"type":"VEC2"},{"bufferView":3,"componentType":5123,"count":1287,"max":[1126],"min":[0],"type":"SCALAR"}],"materials":[{"pbrMetallicRoughness":{"metallicFactor":0,"roughnessFactor":1,"baseColorTexture":{"index":0}},"alphaMode":"MASK","alphaCutoff":0.05,"doubleSided":true}],"textures":[{"sampler":0,"source":0,"name":"adwdawedq.png"}],"samplers":[{"magFilter":9728,"minFilter":9728,"wrapS":33071,"wrapT":33071}],"images":[{"mimeType":"image/png","uri":"data:image/png;base64,"}],"meshes":[{"primitives":[{"mode":4,"attributes":{"POSITION":0,"NORMAL":1,"TEXCOORD_0":2},"indices":3,"material":0}]}]}