{"asset":{"version":"2.0","generator":"Blockbench 5.1.3 glTF exporter"},"scenes":[{"nodes":[0],"name":"blockbench_export"}],"scene":0,"nodes":[{"name":"regular_3.002","mesh":0}],"bufferViews":[{"buffer":0,"byteOffset":0,"byteLength":25920,"target":34962,"byteStride":12},{"buffer":0,"byteOffset":25920,"byteLength":25920,"target":34962,"byteStride":12},{"buffer":0,"byteOffset":51840,"byteLength":17280,"target":34962,"byteStride":8},{"buffer":0,"byteOffset":69120,"byteLength":4896,"target":34963}],"buffers":[{"byteLength":74016,"uri":"data:application/octet-stream;base64,"}],"accessors":[{"bufferView":0,"componentType":5126,"count":2160,"max":[151.4374542236328,86.88079833984375,236.07177734375],"min":[-84.14974975585938,-0.36753812432289124,-63.78965759277344],"type":"VEC3"},{"bufferView":1,"componentType":5126,"count":2160,"max":[0.3762204349040985,0.9999005794525146,0.6460902094841003],"min":[-0.6982929110527039,0.6931136846542358,-0.6456868052482605],"type":"VEC3"},{"bufferView":2,"componentType":5126,"count":2160,"max":[0.9921875,0.6484375],"min":[0.0078125,0.0078125],"type":"VEC2"},{"bufferView":3,"componentType":5123,"count":2448,"max":[2159],"min":[0],"type":"SCALAR"}],"materials":[{"pbrMetallicRoughness":{"metallicFactor":0,"roughnessFactor":1,"baseColorTexture":{"index":0}},"alphaMode":"MASK","alphaCutoff":0.05,"doubleSided":true}],"textures":[{"sampler":0,"source":0,"name":"fafvar.png"}],"samplers":[{"magFilter":9728,"minFilter":9728,"wrapS":33071,"wrapT":33071}],"images":[{"mimeType":"image/png","uri":"data:image/png;base64,"}],"meshes":[{"primitives":[{"mode":4,"attributes":{"POSITION":0,"NORMAL":1,"TEXCOORD_0":2},"indices":3,"material":0}]}]}