# File generated by ImageToStl.com - Free Image and 3D model conversion tools

o obj1
v 1 -0.29299939 -0.40975177
v 1 0.16551614 -0.40975177
v 1 0.16551614 0.40975177
v 1 -0.29299939 0.40975177
v 0.90606058 0.16551614 -0.40975177
v 0 0.16551614 -0.40975177
v 0 0.16551614 0.40975177
v 0.90606058 0.16551614 0.40975177
v 0.90606058 -0.29299939 0.40975177
v 0.90606058 0.16551614 0.40975177
v 0 0.16551614 0.40975177
v 0 -0.29299939 0.40975177
v 0.90606058 0.37146229 0.40975177
v 0.90606058 0.37146229 -0.40975177
v 1 0.37146229 -0.40975177
v 1 0.37146229 0.40975177
v 0.90606058 0.37146229 0.40975177
v -1 -0.29299939 -0.40975177
v -1 -0.29299939 0.40975177
v -1 0.16551614 0.40975177
v -1 0.16551614 -0.40975177
v -0.9060607 0.16551614 -0.40975177
v -0.9060607 0.16551614 0.40975177
v -0.9060607 -0.29299939 0.40975177
v -0.9060607 0.16551614 0.40975177
v -0.9060607 0.37146229 -0.40975177
v -0.9060607 0.37146229 0.40975177
v -1 0.37146229 -0.40975177
v -1 0.37146229 0.40975177
v -0.9060607 0.37146229 0.40975177
v 1.58263147 -0.73355567 -1.99684501
v 1.58263147 -0.27504545 -1.99684501
v 1.00315499 0.12157986 -1.41736853
v 1.00315499 -0.33693409 -1.41736853
v 1.51620626 -0.17229968 -2.06327009
v 0.87552476 0.15511611 -2.70395184
v 0.29604816 0.16551614 -2.12447524
v 0.93672979 0.14272031 -1.48379374
v 0.93672979 0.33226925 -1.48379374
v 1.51620626 -0.01516882 -2.06327009
v 1.59024823 -0.06675664 -2
v 1.00315499 0.33022171 -1.41736853
v 0.16841793 -0.29299939 -3.41105843
v -0.41105843 -0.29299939 -2.83158207
v -0.41105843 0.16551614 -2.83158207
v 0.16841793 0.16551614 -3.41105843
v 0.23484302 0.16551614 -3.34463334
v -0.34463334 0.16551614 -2.76515698
v 0.23484302 0.37146229 -3.34463334
v -0.34463334 0.37146229 -2.76515698
v 0.16841793 0.37146229 -3.41105843
v -0.41105843 0.37146229 -2.83158207
v 2.40975165 -0.20036843 -3
v 2.40975165 -0.78023326 -2.0939393
v 2.48379374 -0.83994079 -2.06327009
v 3.12447524 -0.54021907 -2.7039516
v 2.40975165 -1.3529706 -2
v 2.41736841 -0.9004184 -1.99684501
v 1.58263147 -0.27504545 -1.99684501
v 1.58263147 -0.73355567 -1.99684501
v 1.59024823 0.02797925 -3
v 1.59024823 -0.21830252 -2.0939393
v 1.59024823 -0.06120881 -2.0939393
v 2.40975165 -0.62497878 -2.0939393
v 3.76515675 -0.09201014 -3.3446331
v 2.40975165 0.15178044 -3.90606046
v 2.40975165 -0.68095702 -2
v 1.59024823 -0.06675664 -2
v 3.76515675 0.18512216 -3.3446331
v 2.40975165 0.3712891 -3.90606046
v 3.83158207 0.20869076 -3.41105843
v 2.40975165 0.37146229 -3.99999976
v 2.40975165 -0.29299939 -3.99999976
v 1.59024823 -0.29299939 -3.99999976
v 1.59024823 0.16551614 -3.99999976
v 2.40975165 0.16551614 -3.99999976
v 1.59024823 0.16551614 -3.90606046
v 1.59024823 0.37146229 -3.90606046
v 3.83158207 0.05071438 -3.41105843
v 1.59024823 0.37146229 -3.99999976
v 3.83158207 -0.38366383 -3.41105843
v 2.99684501 -1.94529688 -1.41736841
v 2.99684501 -1.48678136 -1.41736841
v 2.41736841 -0.9004184 -1.99684501
v 2.40975165 -1.3529706 -2
v 3.06327009 -1.44474685 -1.48379374
v 3.7039516 -0.95953023 -2.12447524
v 2.48379374 -0.68085963 -2.06327009
v 3.06327009 -1.23880076 -1.48379374
v 2.99684501 -1.28083515 -1.41736841
v 2.40975165 -0.68095702 -2
v 4.41105843 -0.83929241 -2.83158207
v 4.41105843 -0.38077688 -2.83158207
v 4.3446331 -0.46208221 -2.76515675
v 4.3446331 -0.22608191 -2.76515675
v 4.41105843 -0.18950474 -2.83158207
v 3.0939393 -2.29299927 0.40975171
v 3.0939393 -1.83448386 0.40975171
v 3 -1.83448386 0.40975171
v 3 -2.29299927 0.40975171
v 3 -1.83448386 -0.40975171
v 3 -2.29299927 -0.40975171
v 3.0939393 -1.83448386 0.40975171
v 3.99999976 -1.83448386 0.40975171
v 3.99999976 -1.83448386 -0.40975171
v 3.0939393 -1.83448386 -0.40975171
v 3.0939393 -1.62853765 -0.40975171
v 3.0939393 -1.62853765 0.40975171
v 3.99999976 -2.29299927 0.40975171
v 3.99999976 -1.83448386 0.40975171
v 3 -1.62853765 0.40975171
v 3 -1.62853765 -0.40975171
v 3.0939393 -1.62853765 0.40975171
v 4.90606022 -2.29299927 0.40975171
v 4.99999952 -2.29299927 0.40975171
v 4.99999952 -1.83448386 0.40975171
v 4.90606022 -1.83448386 0.40975171
v 4.99999952 -2.29299927 -0.40975171
v 4.99999952 -1.83448386 -0.40975171
v 4.90606022 -1.83448386 0.40975171
v 4.90606022 -1.83448386 -0.40975171
v 4.90606022 -1.62853765 0.40975171
v 4.90606022 -1.62853765 -0.40975171
v 4.99999952 -1.62853765 0.40975171
v 4.99999952 -1.62853765 -0.40975171
v 4.90606022 -1.62853765 0.40975171
vn 1 0 0
vn 0 1 0
vn 0 0 1
vn -1 0 0
vn 0.70711 0 0.70711
vn 0.267 0.96369 -0.0036
vn -0.70711 0 -0.70711
vn 0.44771 0.88632 -0.1183
vn 0.70318 -0.0075 0.71098
vn 0.0085 0.99996 -0.0004
vn 0.18921 0.81785 0.54343
vn -0.0007 -0.0035 0.99999
vn 0.4018 0.8332 0.3799
vn 0 0 -1
vn 0.0507 0.87826 0.47548
vn 0.56398 0.78478 0.25699
vn -0.38269 0 0.92388
vn 0.0111 0.0147 0.99983
vn 0.054 0.98429 0.1681
vn 0.1412 0.95569 0.2583
vn 0.38269 0 -0.92388
vn 0.0001 1 0.0009
vn -0.704 0.0034 0.7102
vn 0.54212 0.83884 0.0495
vn 0.10791 0.79605 0.59554
vn 0.70711 0 -0.70711
vn -0.38269 0 -0.92388
vn 0.25791 0.80143 0.53962
vn -0.70953 -0.0075 0.70463
vn 0.29589 0.92907 0.22199
vn -0.0232 0.81533 0.57852
vn -0.70711 0 0.70711
vn 0.0858 0.99453 0.0596
vn 0.1059 0.86183 0.49602
vn 0.38269 0 0.92388
vn 1 0 0.0031
vn 0.0285 0.99887 -0.0381
vn -0.99959 0 -0.0285
vn 0.0173 0.99983 -0.0061
vn 0.97274 0 0.23191
vn -0.97168 0 -0.2363
vn 0.39989 0.78737 0.46918
vn 0.97168 0 -0.2363
vn 0.0143 0.86089 0.50859
vn -0.97274 0 0.23191
vn -0.074 0.86635 0.49393
vn -0.1081 0.90056 0.42108
vn 0.99959 0 -0.0285
vn -0.1073 0.93662 0.33351
vn -1 0 0.0031
vt 0.375 0.5
vt 0.625 0.5
vt 0.625 0.75
vt 0.375 0.75
vt 0.63674 0.5
vt 0.75 0.5
vt 0.75 0.75
vt 0.63674 0.75
vt 0.375 0.76174
vt 0.625 0.76174
vt 0.625 0.875
vt 0.375 0.875
vt 0.375 0.48826
vt 0.625 0.48826
vt 0.375 0.375
vt 0.625 0.375
f 1/1/1 2/2/1 3/3/1
f 1/1/1 3/3/1 4/4/1
f 5/5/2 6/6/2 7/7/2
f 5/5/2 7/7/2 8/8/2
f 9/9/3 10/10/3 11/11/3
f 9/9/3 11/11/3 12/12/3
f 4/4/3 3/3/3 10/10/3
f 4/4/3 10/10/3 9/9/3
f 5/5/4 8/8/4 13/8/4
f 5/5/4 13/8/4 14/5/4
f 15/2/2 14/5/2 13/8/2
f 15/2/2 13/8/2 16/3/2
f 10/10/3 3/3/3 16/3/3
f 10/10/3 16/3/3 17/10/3
f 3/3/1 2/2/1 15/2/1
f 3/3/1 15/2/1 16/3/1
f 18/1/4 19/4/4 20/3/4
f 18/1/4 20/3/4 21/2/4
f 22/5/2 23/8/2 7/7/2
f 22/5/2 7/7/2 6/6/2
f 24/9/3 12/12/3 11/11/3
f 24/9/3 11/11/3 25/10/3
f 19/4/3 24/9/3 25/10/3
f 19/4/3 25/10/3 20/3/3
f 22/5/1 26/5/1 27/8/1
f 22/5/1 27/8/1 23/8/1
f 28/2/2 29/3/2 27/8/2
f 28/2/2 27/8/2 26/5/2
f 25/10/3 30/10/3 29/3/3
f 25/10/3 29/3/3 20/3/3
f 20/3/4 29/3/4 28/2/4
f 20/3/4 28/2/4 21/2/4
f 31/1/5 32/2/5 33/3/5
f 31/1/5 33/3/5 34/4/5
f 35/5/6 36/6/6 37/7/6
f 35/5/6 37/7/6 38/8/6
f 35/5/7 38/8/7 39/8/7
f 35/5/7 39/8/7 40/5/7
f 41/2/8 40/5/8 39/8/8
f 41/2/8 39/8/8 42/3/8
f 33/3/9 32/2/9 41/2/9
f 33/3/9 41/2/9 42/3/9
f 43/1/7 44/4/7 45/3/7
f 43/1/7 45/3/7 46/2/7
f 47/5/10 48/8/10 37/7/10
f 47/5/10 37/7/10 36/6/10
f 47/5/5 49/5/5 50/8/5
f 47/5/5 50/8/5 48/8/5
f 51/2/2 52/3/2 50/8/2
f 51/2/2 50/8/2 49/5/2
f 45/3/7 52/3/7 51/2/7
f 45/3/7 51/2/7 46/2/7
f 53/6/11 54/5/11 55/8/11
f 53/6/11 55/8/11 56/7/11
f 57/1/12 58/2/12 59/3/12
f 57/1/12 59/3/12 60/4/12
f 54/5/13 53/6/13 61/7/13
f 54/5/13 61/7/13 62/8/13
f 54/5/14 62/8/14 63/8/14
f 54/5/14 63/8/14 64/5/14
f 56/7/15 65/8/15 66/5/15
f 56/7/15 66/5/15 53/6/15
f 67/2/16 64/5/16 63/8/16
f 67/2/16 63/8/16 68/3/16
f 65/8/17 69/8/17 70/5/17
f 65/8/17 70/5/17 66/5/17
f 59/3/18 58/2/18 67/2/18
f 59/3/18 67/2/18 68/3/18
f 69/8/19 71/3/19 72/2/19
f 69/8/19 72/2/19 70/5/19
f 73/1/14 74/4/14 75/3/14
f 73/1/14 75/3/14 76/2/14
f 66/5/20 77/8/20 61/7/20
f 66/5/20 61/7/20 53/6/20
f 66/5/3 70/5/3 78/8/3
f 66/5/3 78/8/3 77/8/3
f 71/3/21 79/3/21 76/2/21
f 71/3/21 76/2/21 72/2/21
f 72/2/22 80/3/22 78/8/22
f 72/2/22 78/8/22 70/5/22
f 73/1/21 76/2/21 79/3/21
f 73/1/21 79/3/21 81/4/21
f 75/3/14 80/3/14 72/2/14
f 75/3/14 72/2/14 76/2/14
f 82/1/23 83/2/23 84/3/23
f 82/1/23 84/3/23 85/4/23
f 41/2/24 63/8/24 40/5/24
f 86/5/25 87/6/25 56/7/25
f 86/5/25 56/7/25 55/8/25
f 86/5/26 55/8/26 88/8/26
f 86/5/26 88/8/26 89/5/26
f 40/5/27 63/8/27 62/8/27
f 40/5/27 62/8/27 35/5/27
f 90/2/28 89/5/28 88/8/28
f 90/2/28 88/8/28 91/3/28
f 84/3/29 83/2/29 90/2/29
f 84/3/29 90/2/29 91/3/29
f 92/1/26 81/4/26 79/3/26
f 92/1/26 79/3/26 93/2/26
f 36/6/30 35/5/30 62/8/30
f 36/6/30 62/8/30 61/7/30
f 94/5/31 65/8/31 56/7/31
f 94/5/31 56/7/31 87/6/31
f 94/5/32 95/5/32 69/8/32
f 94/5/32 69/8/32 65/8/32
f 36/6/33 61/7/33 77/8/33
f 36/6/33 77/8/33 47/5/33
f 96/2/34 71/3/34 69/8/34
f 96/2/34 69/8/34 95/5/34
f 79/3/26 71/3/26 96/2/26
f 79/3/26 96/2/26 93/2/26
f 97/13/3 98/14/3 99/2/3
f 97/13/3 99/2/3 100/1/3
f 100/1/4 99/2/4 101/3/4
f 100/1/4 101/3/4 102/4/4
f 49/5/35 47/5/35 77/8/35
f 49/5/35 77/8/35 78/8/35
f 103/5/2 104/6/2 105/7/2
f 103/5/2 105/7/2 106/8/2
f 103/5/1 106/8/1 107/8/1
f 103/5/1 107/8/1 108/5/1
f 49/5/2 78/8/2 80/3/2
f 49/5/2 80/3/2 51/2/2
f 109/15/3 110/16/3 98/14/3
f 109/15/3 98/14/3 97/13/3
f 111/2/2 108/5/2 107/8/2
f 111/2/2 107/8/2 112/3/2
f 99/2/3 98/14/3 113/14/3
f 99/2/3 113/14/3 111/2/3
f 101/3/4 99/2/4 111/2/4
f 101/3/4 111/2/4 112/3/4
f 114/13/3 115/1/3 116/2/3
f 114/13/3 116/2/3 117/14/3
f 115/1/1 118/4/1 119/3/1
f 115/1/1 119/3/1 116/2/1
f 51/2/27 80/3/27 75/3/27
f 51/2/27 75/3/27 46/2/27
f 120/5/2 121/8/2 105/7/2
f 120/5/2 105/7/2 104/6/2
f 120/5/4 122/5/4 123/8/4
f 120/5/4 123/8/4 121/8/4
f 43/1/27 46/2/27 75/3/27
f 43/1/27 75/3/27 74/4/27
f 109/15/3 114/13/3 117/14/3
f 109/15/3 117/14/3 110/16/3
f 124/2/2 125/3/2 123/8/2
f 124/2/2 123/8/2 122/5/2
f 116/2/3 124/2/3 126/14/3
f 116/2/3 126/14/3 117/14/3
f 119/3/1 125/3/1 124/2/1
f 119/3/1 124/2/1 116/2/1
f 1/1/36 34/4/36 33/3/36
f 1/1/36 33/3/36 2/2/36
f 15/2/36 2/2/36 33/3/36
f 15/2/36 33/3/36 42/3/36
f 14/5/37 15/2/37 42/3/37
f 14/5/37 42/3/37 39/8/37
f 14/5/38 39/8/38 38/8/38
f 14/5/38 38/8/38 5/5/38
f 6/6/39 5/5/39 38/8/39
f 6/6/39 38/8/39 37/7/39
f 6/6/2 37/7/2 48/8/2
f 6/6/2 48/8/2 22/5/2
f 26/5/40 22/5/40 48/8/40
f 26/5/40 48/8/40 50/8/40
f 26/5/2 50/8/2 52/3/2
f 26/5/2 52/3/2 28/2/2
f 28/2/41 52/3/41 45/3/41
f 28/2/41 45/3/41 21/2/41
f 18/1/41 21/2/41 45/3/41
f 18/1/41 45/3/41 44/4/41
f 88/8/21 55/8/21 54/5/21
f 88/8/21 54/5/21 64/5/21
f 88/8/42 64/5/42 91/3/42
f 119/3/43 118/4/43 92/1/43
f 119/3/43 92/1/43 93/2/43
f 119/3/43 93/2/43 96/2/43
f 119/3/43 96/2/43 125/3/43
f 95/5/44 123/8/44 125/3/44
f 95/5/44 125/3/44 96/2/44
f 95/5/45 94/5/45 121/8/45
f 95/5/45 121/8/45 123/8/45
f 87/6/46 105/7/46 121/8/46
f 87/6/46 121/8/46 94/5/46
f 87/6/47 86/5/47 106/8/47
f 87/6/47 106/8/47 105/7/47
f 89/5/48 107/8/48 106/8/48
f 89/5/48 106/8/48 86/5/48
f 89/5/49 90/2/49 112/3/49
f 89/5/49 112/3/49 107/8/49
f 90/2/50 83/2/50 101/3/50
f 90/2/50 101/3/50 112/3/50
f 82/1/50 102/4/50 101/3/50
f 82/1/50 101/3/50 83/2/50
# Vertices: 126, normals: 50, texture coordinates: 16, faces: 194

