# File generated by ImageToStl.com - Free Image and 3D model conversion tools

o obj1
v 1.12605488 -0.40682796 -1.68981314
v 1.06852365 -0.13429561 -1.63805187
v 2.48516178 0.40682793 -2.91261101
v 2.5426929 0.13429558 -2.9643724
v 2.87987208 0.40682793 -2.47390127
v 2.9374032 0.13429558 -2.52566266
v 1.46323383 -0.13429561 -1.19934213
v 1.52076507 -0.40682796 -1.2511034
v 1.06852365 -0.13429561 -1.63805187
v 1.12605488 -0.40682796 -1.68981314
v 2.5426929 0.13429558 -2.9643724
v 1.12605488 -0.40682796 -1.68981314
v 2.48516178 0.40682793 -2.91261101
v 1.06852365 -0.13429561 -1.63805187
v 1 -0.29299939 -0.40975219
v 1.00000012 0.16551612 -0.40975207
v 1.00000012 0.16551614 0.40975147
v 1.00000012 -0.29299939 0.40975142
v 0.9060601 0.16551614 -0.40975201
v 2E-07 0.16551614 -0.40975195
v 3.1E-07 0.16551614 0.40975145
v 0.90606081 0.16551614 0.40975147
v 0.90606081 -0.29299939 0.40975142
v 0.90606081 0.16551614 0.40975147
v 3.1E-07 0.16551614 0.40975145
v 3.5E-07 -0.29299933 0.40975139
v 0.90606076 0.37146229 0.40975147
v 0.90606004 0.37146229 -0.40975195
v 1 0.37146223 -0.40975201
v 1 0.37146229 0.40975147
v 0.90606076 0.37146229 0.40975147
v -0.99999976 -0.29299939 -0.40975186
v -0.99999958 -0.29299942 0.40975156
v -0.99999964 0.16551605 0.40975156
v -0.99999964 0.16551615 -0.40975201
v -0.90605986 0.16551615 -0.40975186
v -0.90606034 0.16551608 0.40975159
v -0.90606028 -0.29299939 0.40975153
v -0.90606034 0.16551608 0.40975159
v -0.90605992 0.37146229 -0.40975186
v -0.90606022 0.37146246 0.4097515
v -0.99999952 0.37146223 -0.40975201
v -0.9999997 0.37146235 0.40975165
v -0.90606022 0.37146246 0.4097515
v 4.40975094 -2.29299927 -3.0939393
v 4.40975094 -1.83448386 -3.09393954
v 4.40975189 -1.83448386 -3.00000048
v 4.40975094 -2.29299927 -3.00000048
v 3.59024787 -1.69380689 -3.00000024
v 3.59024787 -2.15232277 -3.00000024
v 4.40975094 -1.83448386 -3.09393954
v 4.40975094 -1.83448386 -4
v 3.59024787 -1.69380736 -4
v 3.59024787 -1.69380736 -3.0939393
v 3.59024787 -1.48786116 -3.09393907
v 4.40975094 -1.62853777 -3.09393907
v 4.40975094 -2.29299927 -4
v 4.40975094 -1.83448386 -4
v 4.40975094 -1.62853777 -3.00000024
v 3.59024763 -1.48786139 -3
v -0.9060598 0.37146235 -4.90606022
v -0.99999952 0.37146235 -5
v 4.40975094 -1.62853777 -3.09393907
v 4.40975094 -2.29299927 -4.90606117
v 4.40975094 -2.29299927 -5
v 4.40975094 -1.83448386 -5
v 4.40975189 -1.83448374 -4.90606117
v 3.59024763 -2.15232277 -5
v 3.59024811 -1.69380736 -5
v 3.59024787 -1.48786128 -4.90606117
v 3.59024787 -1.48786128 -5
v 4.40975189 -1.83448374 -4.90606117
v 3.59024787 -1.69380689 -4.90606022
v -0.9999994 0.16551614 -4.99999905
v 4.40975094 -1.62853765 -4.90606117
v -0.9999994 -0.29299933 -5
v 4.40975094 -1.62853789 -4.99999905
v 4.40975094 -1.62853765 -4.90606117
v 0.99999994 -0.80353993 -3.00000024
v 0.99999994 -0.34502447 -3
v 0.90605998 -0.33840817 -3.0939393
v 3.1E-07 0.04425579 -3.99999952
v -0.90605986 0.16551614 -4.90606022
vn -0.66882 0 -0.74342
vn 0.71511 0.2732 -0.64341
vn 0.66882 0 0.74342
vn -0.71511 -0.2732 0.64341
vn 0.20309 -0.96196 -0.18269
vn -0.20309 0.96196 0.18269
vn 1 0 0
vn 0 1 0
vn 0 0 1
vn -1 0 0
vn 0.1692 0.98558 0
vn 0 0 -1
vn 0.37212 0.90934 -0.18611
vn 0.44761 0.87313 -0.19311
vn 0.128 0.97393 -0.18731
vn 0.44198 0.89646 -0.0317
vn 0.2514 0.96311 -0.096
vn 0.4024 0.90459 -0.1407
vn 0.0742 0.99713 -0.015
vt 0.375 0
vt 0.625 0
vt 0.625 0.25
vt 0.375 0.25
vt 0.625 0.5
vt 0.375 0.5
vt 0.625 0.75
vt 0.375 0.75
vt 0.625 1
vt 0.375 1
vt 0.125 0.5
vt 0.125 0.75
vt 0.875 0.5
vt 0.875 0.75
vt 0.63674 0.5
vt 0.75 0.5
vt 0.75 0.75
vt 0.63674 0.75
vt 0.375 0.76174
vt 0.625 0.76174
vt 0.625 0.875
vt 0.375 0.875
vt 0.375 0.48826
vt 0.625 0.48826
vt 0.375 0.375
vt 0.625 0.375
vt 0 0
f 1/1/1 2/2/1 3/3/1
f 1/1/1 3/3/1 4/4/1
f 4/4/2 3/3/2 5/5/2
f 4/4/2 5/5/2 6/6/2
f 6/6/3 5/5/3 7/7/3
f 6/6/3 7/7/3 8/8/3
f 8/8/4 7/7/4 9/9/4
f 8/8/4 9/9/4 10/10/4
f 11/11/5 6/6/5 8/8/5
f 11/11/5 8/8/5 12/12/5
f 5/5/6 13/13/6 14/14/6
f 5/5/6 14/14/6 7/7/6
f 15/6/7 16/5/7 17/7/7
f 15/6/7 17/7/7 18/8/7
f 19/15/8 20/16/8 21/17/8
f 19/15/8 21/17/8 22/18/8
f 23/19/9 24/20/9 25/21/9
f 23/19/9 25/21/9 26/22/9
f 18/8/9 17/7/9 24/20/9
f 18/8/9 24/20/9 23/19/9
f 19/15/10 22/18/10 27/18/10
f 19/15/10 27/18/10 28/15/10
f 29/5/8 28/15/8 27/18/8
f 29/5/8 27/18/8 30/7/8
f 24/20/9 17/7/9 30/7/9
f 24/20/9 30/7/9 31/20/9
f 17/7/7 16/5/7 29/5/7
f 17/7/7 29/5/7 30/7/7
f 32/6/10 33/8/10 34/7/10
f 32/6/10 34/7/10 35/5/10
f 36/15/8 37/18/8 21/17/8
f 36/15/8 21/17/8 20/16/8
f 38/19/9 26/22/9 25/21/9
f 38/19/9 25/21/9 39/20/9
f 33/8/9 38/19/9 39/20/9
f 33/8/9 39/20/9 34/7/9
f 36/15/7 40/15/7 41/18/7
f 36/15/7 41/18/7 37/18/7
f 42/5/8 43/7/8 41/18/8
f 42/5/8 41/18/8 40/15/8
f 39/20/9 44/20/9 43/7/9
f 39/20/9 43/7/9 34/7/9
f 34/7/10 43/7/10 42/5/10
f 34/7/10 42/5/10 35/5/10
f 45/23/7 46/24/7 47/5/7
f 45/23/7 47/5/7 48/6/7
f 48/6/9 47/5/9 49/7/9
f 48/6/9 49/7/9 50/8/9
f 51/15/11 52/16/11 53/17/11
f 51/15/11 53/17/11 54/18/11
f 51/15/12 54/18/12 55/18/12
f 51/15/12 55/18/12 56/15/12
f 57/25/7 58/26/7 46/24/7
f 57/25/7 46/24/7 45/23/7
f 59/5/11 56/15/11 55/18/11
f 59/5/11 55/18/11 60/7/11
f 40/15/8 61/27/8 62/27/8
f 40/15/8 62/27/8 42/5/8
f 47/5/7 46/24/7 63/24/7
f 47/5/7 63/24/7 59/5/7
f 49/7/9 47/5/9 59/5/9
f 49/7/9 59/5/9 60/7/9
f 64/23/7 65/6/7 66/5/7
f 64/23/7 66/5/7 67/24/7
f 65/6/12 68/8/12 69/7/12
f 65/6/12 69/7/12 66/5/12
f 61/27/13 70/18/13 71/7/13
f 61/27/13 71/7/13 62/27/13
f 72/15/11 73/18/11 53/17/11
f 72/15/11 53/17/11 52/16/11
f 62/27/12 71/7/12 69/7/12
f 62/27/12 69/7/12 74/27/12
f 74/27/10 35/5/10 42/5/10
f 74/27/10 42/5/10 62/27/10
f 72/15/9 75/15/9 70/18/9
f 72/15/9 70/18/9 73/18/9
f 32/6/10 35/5/10 74/27/10
f 32/6/10 74/27/10 76/27/10
f 57/25/7 64/23/7 67/24/7
f 57/25/7 67/24/7 58/26/7
f 77/5/11 71/7/11 70/18/11
f 77/5/11 70/18/11 75/15/11
f 76/27/12 74/27/12 69/7/12
f 76/27/12 69/7/12 68/8/12
f 66/5/7 77/5/7 78/24/7
f 66/5/7 78/24/7 67/24/7
f 69/7/12 71/7/12 77/5/12
f 69/7/12 77/5/12 66/5/12
f 15/6/7 79/27/7 80/27/7
f 15/6/7 80/27/7 16/5/7
f 50/8/9 49/7/9 80/27/9
f 50/8/9 80/27/9 79/27/9
f 54/18/10 49/7/10 60/7/10
f 54/18/10 60/7/10 55/18/10
f 54/18/14 81/27/14 80/27/14
f 54/18/14 80/27/14 49/7/14
f 80/27/15 81/27/15 19/15/15
f 80/27/15 19/15/15 16/5/15
f 29/5/12 16/5/12 19/15/12
f 29/5/12 19/15/12 28/15/12
f 54/18/16 53/17/16 82/27/16
f 54/18/16 82/27/16 81/27/16
f 19/15/17 81/27/17 82/27/17
f 19/15/17 82/27/17 20/16/17
f 73/18/18 83/27/18 82/27/18
f 73/18/18 82/27/18 53/17/18
f 36/15/19 20/16/19 82/27/19
f 36/15/19 82/27/19 83/27/19
f 61/27/7 40/15/7 36/15/7
f 61/27/7 36/15/7 83/27/7
f 61/27/9 83/27/9 73/18/9
f 61/27/9 73/18/9 70/18/9
# Vertices: 83, normals: 19, texture coordinates: 27, faces: 112

